<svg width="877" height="147" fill="none" xmlns="http://www.w3.org/2000/svg"><g opacity=".75"><path d="M37.667 3.725H64.66L101.87 112H76.25l-8.388-24.248H34.16L25.925 112H.305L37.667 3.725zM63.745 70.52L51.088 28.888 38.124 70.52h25.62zm39.997 1.373c0-7.727 1.474-14.691 4.422-20.893 3.05-6.303 7.219-11.285 12.505-14.945 5.389-3.762 11.539-5.642 18.453-5.642 5.591 0 10.624 1.372 15.097 4.117 4.575 2.643 8.083 6.15 10.523 10.523V.675h24.4v84.18c0 2.44.356 4.168 1.067 5.185.814 1.017 2.186 1.576 4.118 1.677V112c-4.27.813-7.727 1.22-10.37 1.22-4.169 0-7.574-.915-10.218-2.745-2.643-1.83-4.219-4.372-4.727-7.625l-.458-4.117c-2.846 4.981-6.71 8.692-11.59 11.132-4.88 2.44-10.014 3.66-15.402 3.66-7.32 0-13.827-1.779-19.52-5.338-5.694-3.66-10.167-8.641-13.42-14.944-3.254-6.304-4.88-13.42-4.88-21.35zm61.152 9.912V65.03c-1.525-4.067-4.016-7.37-7.472-9.913-3.355-2.643-6.863-3.964-10.523-3.964-3.456 0-6.557.965-9.302 2.897-2.745 1.932-4.88 4.524-6.405 7.778-1.525 3.253-2.288 6.76-2.288 10.522 0 5.897 1.779 10.828 5.338 14.793 3.66 3.863 8.286 5.794 13.877 5.794 3.355 0 6.558-.965 9.608-2.897 3.151-2.033 5.541-4.778 7.167-8.235zM228.39 112l-28.365-80.063h25.163l17.537 58.103 17.538-58.103h22.875L254.925 112H228.39zm56.882-23.942c0-5.287 1.474-9.913 4.422-13.878 2.948-3.965 7.015-7.066 12.2-9.303 5.185-2.338 11.133-3.507 17.843-3.507 3.253 0 6.455.305 9.607.915 3.152.508 5.897 1.27 8.235 2.288v-3.508c0-9.048-5.337-13.572-16.012-13.572-4.474 0-8.693.762-12.658 2.287-3.863 1.525-7.981 3.71-12.352 6.557l-7.32-15.555c10.573-6.913 22.163-10.37 34.77-10.37 11.996 0 21.299 2.898 27.907 8.693 6.71 5.693 10.065 13.98 10.065 24.858v20.892c0 2.44.356 4.168 1.068 5.185.813 1.017 2.185 1.576 4.117 1.677V112a82.892 82.892 0 01-5.795.915c-1.728.203-3.253.305-4.575.305-4.575 0-8.082-.915-10.522-2.745-2.339-1.83-3.813-4.321-4.423-7.473l-.457-3.507c-3.559 4.575-7.829 8.082-12.81 10.522-4.982 2.339-10.116 3.508-15.403 3.508-5.287 0-10.065-1.118-14.335-3.355-4.168-2.237-7.472-5.236-9.912-8.998-2.44-3.863-3.66-8.234-3.66-13.114zm48.495 3.05c2.541-2.034 3.812-4.118 3.812-6.253v-7.168c-2.135-.813-4.473-1.423-7.015-1.83-2.44-.508-4.677-.762-6.71-.762-4.575 0-8.337 1.017-11.285 3.05-2.847 2.033-4.27 4.626-4.27 7.778 0 2.745 1.068 5.134 3.203 7.167 2.236 1.932 5.185 2.897 8.845 2.897 2.44 0 4.88-.457 7.32-1.372 2.44-.915 4.473-2.084 6.1-3.507zM456.825 112h-24.4V67.013c0-5.287-1.017-9.1-3.05-11.438-1.932-2.44-4.525-3.66-7.778-3.66-3.355 0-6.761 1.322-10.217 3.965-3.457 2.643-5.897 6.05-7.32 10.217V112h-24.4V31.937h21.96v13.42c2.948-4.676 7.116-8.336 12.505-10.98 5.388-2.643 11.59-3.965 18.605-3.965 5.185 0 9.353.966 12.505 2.898 3.253 1.83 5.693 4.27 7.32 7.32 1.728 2.948 2.846 6.202 3.355 9.76.61 3.558.915 7.015.915 10.37V112zm67.912-4.27c-3.355 1.423-7.218 2.745-11.59 3.965a46.967 46.967 0 01-12.962 1.83c-4.067 0-7.778-.661-11.133-1.983-3.355-1.423-6.049-3.71-8.082-6.862-2.034-3.152-3.05-7.32-3.05-12.505V50.39h-10.218V31.937h10.218V6.47h24.4v25.468h16.317V50.39H502.32v33.397c0 2.644.661 4.575 1.982 5.795 1.322 1.119 2.999 1.678 5.033 1.678 1.83 0 3.711-.305 5.642-.915 1.932-.61 3.609-1.27 5.033-1.983l4.727 19.368zm4.475-19.672c0-5.287 1.474-9.913 4.423-13.878 2.948-3.965 7.015-7.066 12.2-9.303 5.185-2.338 11.132-3.507 17.842-3.507 3.253 0 6.456.305 9.608.915 3.151.508 5.896 1.27 8.235 2.288v-3.508c0-9.048-5.338-13.572-16.013-13.572-4.473 0-8.692.762-12.657 2.287-3.864 1.525-7.981 3.71-12.353 6.557l-7.32-15.555c10.573-6.913 22.163-10.37 34.77-10.37 11.997 0 21.299 2.898 27.908 8.693 6.71 5.693 10.065 13.98 10.065 24.858v20.892c0 2.44.355 4.168 1.067 5.185.813 1.017 2.186 1.576 4.118 1.677V112a82.892 82.892 0 01-5.795.915c-1.729.203-3.254.305-4.575.305-4.575 0-8.083-.915-10.523-2.745-2.338-1.83-3.812-4.321-4.422-7.473l-.458-3.507c-3.558 4.575-7.828 8.082-12.81 10.522-4.982 2.339-10.116 3.508-15.402 3.508-5.287 0-10.065-1.118-14.335-3.355-4.169-2.237-7.473-5.236-9.913-8.998-2.44-3.863-3.66-8.234-3.66-13.114zm48.495 3.05c2.542-2.034 3.813-4.118 3.813-6.253v-7.168c-2.135-.813-4.474-1.423-7.015-1.83-2.44-.508-4.677-.762-6.71-.762-4.575 0-8.337 1.017-11.285 3.05-2.847 2.033-4.27 4.626-4.27 7.778 0 2.745 1.067 5.134 3.202 7.167 2.237 1.932 5.185 2.897 8.845 2.897 2.44 0 4.88-.457 7.32-1.372 2.44-.915 4.473-2.084 6.1-3.507zm77.003 21.197c-7.117 0-13.318-1.83-18.605-5.49-5.287-3.66-9.455-8.54-12.505-14.64-2.948-6.1-4.422-12.86-4.422-20.282 0-7.829 1.575-14.844 4.727-21.046 3.152-6.303 7.523-11.285 13.115-14.944 5.592-3.66 12.048-5.49 19.368-5.49 5.998 0 11.285 1.321 15.86 3.964 4.575 2.542 8.235 6.1 10.98 10.675V31.939h21.197v74.572c0 8.133-1.982 15.148-5.947 21.045-3.864 5.897-9.303 10.421-16.318 13.573-6.913 3.253-14.945 4.88-24.095 4.88-8.54 0-15.911-1.424-22.112-4.27-6.1-2.745-11.438-6.66-16.013-11.743l13.115-13.267c2.948 3.355 6.608 5.998 10.98 7.93 4.473 2.033 9.15 3.05 14.03 3.05 3.965 0 7.574-.712 10.828-2.135 3.355-1.424 6.049-3.711 8.082-6.863 2.033-3.05 3.05-7.117 3.05-12.2v-7.778c-2.44 4.474-5.998 7.88-10.675 10.218-4.575 2.237-9.455 3.355-14.64 3.355zm8.388-19.368c3.761 0 7.116-1.016 10.065-3.05a21.974 21.974 0 006.862-8.082V65.03c-1.627-4.168-4.117-7.523-7.472-10.065-3.355-2.542-6.914-3.813-10.675-3.813-3.457 0-6.558 1.017-9.303 3.05-2.643 1.932-4.727 4.525-6.252 7.778-1.525 3.253-2.288 6.76-2.288 10.523 0 5.896 1.83 10.776 5.49 14.64 3.66 3.863 8.184 5.794 13.573 5.794zm96.326 20.588c-9.048 0-16.775-1.881-23.18-5.643-6.405-3.761-11.336-8.743-14.792-14.945-3.355-6.201-5.033-12.911-5.033-20.13 0-7.726 1.678-14.792 5.033-21.197 3.355-6.405 8.235-11.54 14.64-15.402 6.405-3.864 14.182-5.795 23.332-5.795 9.048 0 16.775 1.931 23.18 5.795 6.405 3.863 11.234 8.946 14.488 15.25 3.355 6.303 5.032 13.064 5.032 20.282 0 2.948-.203 5.54-.61 7.778h-59.17c.407 5.388 2.338 9.505 5.795 12.352 3.558 2.745 7.574 4.117 12.048 4.117 3.558 0 6.964-.864 10.217-2.592 3.253-1.728 5.49-4.067 6.71-7.015l20.74 5.795c-3.152 6.303-8.082 11.437-14.792 15.402-6.609 3.965-14.488 5.948-23.638 5.948zm-17.69-48.953h34.77c-.508-5.083-2.389-9.099-5.642-12.047-3.152-3.05-7.066-4.575-11.743-4.575-4.677 0-8.642 1.525-11.895 4.575-3.152 3.05-4.982 7.066-5.49 12.048zm102.101 48.953a61.493 61.493 0 01-20.13-3.355c-6.405-2.338-11.844-5.643-16.317-9.913l8.387-15.402c9.862 7.218 18.961 10.828 27.298 10.828 3.151 0 5.591-.509 7.32-1.526 1.728-1.016 2.592-2.592 2.592-4.727 0-2.237-1.169-3.813-3.507-4.728-2.339-1.016-5.795-2.185-10.37-3.507-6.1-2.033-11.184-4.016-15.25-5.947-4.067-1.932-7.117-4.27-9.15-7.016-2.034-2.745-3.05-6.404-3.05-10.98 0-8.031 2.999-14.487 8.997-19.367 5.999-4.982 14.132-7.472 24.4-7.472 5.49 0 10.828.864 16.013 2.592 5.286 1.728 10.217 4.626 14.792 8.692l-9.455 15.25c-4.575-3.151-8.641-5.439-12.2-6.862-3.558-1.423-7.015-2.135-10.37-2.135-2.643 0-4.88.508-6.71 1.525-1.83.915-2.745 2.542-2.745 4.88 0 2.237 1.017 3.914 3.05 5.033 2.034 1.016 5.185 2.135 9.455 3.355 6.507 1.931 11.946 3.914 16.318 5.947 4.473 1.932 7.777 4.372 9.912 7.32 2.237 2.847 3.355 6.66 3.355 11.438 0 8.133-2.948 14.538-8.845 19.214-5.896 4.575-13.826 6.863-23.79 6.863z" fill="#fff"/><path d="M37.667 3.725H64.66L101.87 112H76.25l-8.388-24.248H34.16L25.925 112H.305L37.667 3.725zM63.745 70.52L51.088 28.888 38.124 70.52h25.62zm39.997 1.373c0-7.727 1.474-14.691 4.422-20.893 3.05-6.303 7.219-11.285 12.505-14.945 5.389-3.762 11.539-5.642 18.453-5.642 5.591 0 10.624 1.372 15.097 4.117 4.575 2.643 8.083 6.15 10.523 10.523V.675h24.4v84.18c0 2.44.356 4.168 1.067 5.185.814 1.017 2.186 1.576 4.118 1.677V112c-4.27.813-7.727 1.22-10.37 1.22-4.169 0-7.574-.915-10.218-2.745-2.643-1.83-4.219-4.372-4.727-7.625l-.458-4.117c-2.846 4.981-6.71 8.692-11.59 11.132-4.88 2.44-10.014 3.66-15.402 3.66-7.32 0-13.827-1.779-19.52-5.338-5.694-3.66-10.167-8.641-13.42-14.944-3.254-6.304-4.88-13.42-4.88-21.35zm61.152 9.912V65.03c-1.525-4.067-4.016-7.37-7.472-9.913-3.355-2.643-6.863-3.964-10.523-3.964-3.456 0-6.557.965-9.302 2.897-2.745 1.932-4.88 4.524-6.405 7.778-1.525 3.253-2.288 6.76-2.288 10.522 0 5.897 1.779 10.828 5.338 14.793 3.66 3.863 8.286 5.794 13.877 5.794 3.355 0 6.558-.965 9.608-2.897 3.151-2.033 5.541-4.778 7.167-8.235zM228.39 112l-28.365-80.063h25.163l17.537 58.103 17.538-58.103h22.875L254.925 112H228.39zm56.882-23.942c0-5.287 1.474-9.913 4.422-13.878 2.948-3.965 7.015-7.066 12.2-9.303 5.185-2.338 11.133-3.507 17.843-3.507 3.253 0 6.455.305 9.607.915 3.152.508 5.897 1.27 8.235 2.288v-3.508c0-9.048-5.337-13.572-16.012-13.572-4.474 0-8.693.762-12.658 2.287-3.863 1.525-7.981 3.71-12.352 6.557l-7.32-15.555c10.573-6.913 22.163-10.37 34.77-10.37 11.996 0 21.299 2.898 27.907 8.693 6.71 5.693 10.065 13.98 10.065 24.858v20.892c0 2.44.356 4.168 1.068 5.185.813 1.017 2.185 1.576 4.117 1.677V112a82.892 82.892 0 01-5.795.915c-1.728.203-3.253.305-4.575.305-4.575 0-8.082-.915-10.522-2.745-2.339-1.83-3.813-4.321-4.423-7.473l-.457-3.507c-3.559 4.575-7.829 8.082-12.81 10.522-4.982 2.339-10.116 3.508-15.403 3.508-5.287 0-10.065-1.118-14.335-3.355-4.168-2.237-7.472-5.236-9.912-8.998-2.44-3.863-3.66-8.234-3.66-13.114zm48.495 3.05c2.541-2.034 3.812-4.118 3.812-6.253v-7.168c-2.135-.813-4.473-1.423-7.015-1.83-2.44-.508-4.677-.762-6.71-.762-4.575 0-8.337 1.017-11.285 3.05-2.847 2.033-4.27 4.626-4.27 7.778 0 2.745 1.068 5.134 3.203 7.167 2.236 1.932 5.185 2.897 8.845 2.897 2.44 0 4.88-.457 7.32-1.372 2.44-.915 4.473-2.084 6.1-3.507zM456.825 112h-24.4V67.013c0-5.287-1.017-9.1-3.05-11.438-1.932-2.44-4.525-3.66-7.778-3.66-3.355 0-6.761 1.322-10.217 3.965-3.457 2.643-5.897 6.05-7.32 10.217V112h-24.4V31.937h21.96v13.42c2.948-4.676 7.116-8.336 12.505-10.98 5.388-2.643 11.59-3.965 18.605-3.965 5.185 0 9.353.966 12.505 2.898 3.253 1.83 5.693 4.27 7.32 7.32 1.728 2.948 2.846 6.202 3.355 9.76.61 3.558.915 7.015.915 10.37V112zm67.912-4.27c-3.355 1.423-7.218 2.745-11.59 3.965a46.967 46.967 0 01-12.962 1.83c-4.067 0-7.778-.661-11.133-1.983-3.355-1.423-6.049-3.71-8.082-6.862-2.034-3.152-3.05-7.32-3.05-12.505V50.39h-10.218V31.937h10.218V6.47h24.4v25.468h16.317V50.39H502.32v33.397c0 2.644.661 4.575 1.982 5.795 1.322 1.119 2.999 1.678 5.033 1.678 1.83 0 3.711-.305 5.642-.915 1.932-.61 3.609-1.27 5.033-1.983l4.727 19.368zm4.475-19.672c0-5.287 1.474-9.913 4.423-13.878 2.948-3.965 7.015-7.066 12.2-9.303 5.185-2.338 11.132-3.507 17.842-3.507 3.253 0 6.456.305 9.608.915 3.151.508 5.896 1.27 8.235 2.288v-3.508c0-9.048-5.338-13.572-16.013-13.572-4.473 0-8.692.762-12.657 2.287-3.864 1.525-7.981 3.71-12.353 6.557l-7.32-15.555c10.573-6.913 22.163-10.37 34.77-10.37 11.997 0 21.299 2.898 27.908 8.693 6.71 5.693 10.065 13.98 10.065 24.858v20.892c0 2.44.355 4.168 1.067 5.185.813 1.017 2.186 1.576 4.118 1.677V112a82.892 82.892 0 01-5.795.915c-1.729.203-3.254.305-4.575.305-4.575 0-8.083-.915-10.523-2.745-2.338-1.83-3.812-4.321-4.422-7.473l-.458-3.507c-3.558 4.575-7.828 8.082-12.81 10.522-4.982 2.339-10.116 3.508-15.402 3.508-5.287 0-10.065-1.118-14.335-3.355-4.169-2.237-7.473-5.236-9.913-8.998-2.44-3.863-3.66-8.234-3.66-13.114zm48.495 3.05c2.542-2.034 3.813-4.118 3.813-6.253v-7.168c-2.135-.813-4.474-1.423-7.015-1.83-2.44-.508-4.677-.762-6.71-.762-4.575 0-8.337 1.017-11.285 3.05-2.847 2.033-4.27 4.626-4.27 7.778 0 2.745 1.067 5.134 3.202 7.167 2.237 1.932 5.185 2.897 8.845 2.897 2.44 0 4.88-.457 7.32-1.372 2.44-.915 4.473-2.084 6.1-3.507zm77.003 21.197c-7.117 0-13.318-1.83-18.605-5.49-5.287-3.66-9.455-8.54-12.505-14.64-2.948-6.1-4.422-12.86-4.422-20.282 0-7.829 1.575-14.844 4.727-21.046 3.152-6.303 7.523-11.285 13.115-14.944 5.592-3.66 12.048-5.49 19.368-5.49 5.998 0 11.285 1.321 15.86 3.964 4.575 2.542 8.235 6.1 10.98 10.675V31.939h21.197v74.572c0 8.133-1.982 15.148-5.947 21.045-3.864 5.897-9.303 10.421-16.318 13.573-6.913 3.253-14.945 4.88-24.095 4.88-8.54 0-15.911-1.424-22.112-4.27-6.1-2.745-11.438-6.66-16.013-11.743l13.115-13.267c2.948 3.355 6.608 5.998 10.98 7.93 4.473 2.033 9.15 3.05 14.03 3.05 3.965 0 7.574-.712 10.828-2.135 3.355-1.424 6.049-3.711 8.082-6.863 2.033-3.05 3.05-7.117 3.05-12.2v-7.778c-2.44 4.474-5.998 7.88-10.675 10.218-4.575 2.237-9.455 3.355-14.64 3.355zm8.388-19.368c3.761 0 7.116-1.016 10.065-3.05a21.974 21.974 0 006.862-8.082V65.03c-1.627-4.168-4.117-7.523-7.472-10.065-3.355-2.542-6.914-3.813-10.675-3.813-3.457 0-6.558 1.017-9.303 3.05-2.643 1.932-4.727 4.525-6.252 7.778-1.525 3.253-2.288 6.76-2.288 10.523 0 5.896 1.83 10.776 5.49 14.64 3.66 3.863 8.184 5.794 13.573 5.794zm96.326 20.588c-9.048 0-16.775-1.881-23.18-5.643-6.405-3.761-11.336-8.743-14.792-14.945-3.355-6.201-5.033-12.911-5.033-20.13 0-7.726 1.678-14.792 5.033-21.197 3.355-6.405 8.235-11.54 14.64-15.402 6.405-3.864 14.182-5.795 23.332-5.795 9.048 0 16.775 1.931 23.18 5.795 6.405 3.863 11.234 8.946 14.488 15.25 3.355 6.303 5.032 13.064 5.032 20.282 0 2.948-.203 5.54-.61 7.778h-59.17c.407 5.388 2.338 9.505 5.795 12.352 3.558 2.745 7.574 4.117 12.048 4.117 3.558 0 6.964-.864 10.217-2.592 3.253-1.728 5.49-4.067 6.71-7.015l20.74 5.795c-3.152 6.303-8.082 11.437-14.792 15.402-6.609 3.965-14.488 5.948-23.638 5.948zm-17.69-48.953h34.77c-.508-5.083-2.389-9.099-5.642-12.047-3.152-3.05-7.066-4.575-11.743-4.575-4.677 0-8.642 1.525-11.895 4.575-3.152 3.05-4.982 7.066-5.49 12.048zm102.101 48.953a61.493 61.493 0 01-20.13-3.355c-6.405-2.338-11.844-5.643-16.317-9.913l8.387-15.402c9.862 7.218 18.961 10.828 27.298 10.828 3.151 0 5.591-.509 7.32-1.526 1.728-1.016 2.592-2.592 2.592-4.727 0-2.237-1.169-3.813-3.507-4.728-2.339-1.016-5.795-2.185-10.37-3.507-6.1-2.033-11.184-4.016-15.25-5.947-4.067-1.932-7.117-4.27-9.15-7.016-2.034-2.745-3.05-6.404-3.05-10.98 0-8.031 2.999-14.487 8.997-19.367 5.999-4.982 14.132-7.472 24.4-7.472 5.49 0 10.828.864 16.013 2.592 5.286 1.728 10.217 4.626 14.792 8.692l-9.455 15.25c-4.575-3.151-8.641-5.439-12.2-6.862-3.558-1.423-7.015-2.135-10.37-2.135-2.643 0-4.88.508-6.71 1.525-1.83.915-2.745 2.542-2.745 4.88 0 2.237 1.017 3.914 3.05 5.033 2.034 1.016 5.185 2.135 9.455 3.355 6.507 1.931 11.946 3.914 16.318 5.947 4.473 1.932 7.777 4.372 9.912 7.32 2.237 2.847 3.355 6.66 3.355 11.438 0 8.133-2.948 14.538-8.845 19.214-5.896 4.575-13.826 6.863-23.79 6.863z" fill="url(#paint0_linear)" fill-opacity=".8"/></g><defs><linearGradient id="paint0_linear" x1="1497.45" y1="-132.752" x2="123.86" y2="113.73" gradientUnits="userSpaceOnUse"><stop stop-color="#F9F9FE"/><stop offset="1" stop-color="#F9F9FE" stop-opacity=".56"/></linearGradient></defs></svg>