<svg width="22" height="12" fill="none" xmlns="http://www.w3.org/2000/svg"><path fill-rule="evenodd" clip-rule="evenodd" d="M11.794 11.838s.382-.041.577-.247c.179-.189.172-.545.172-.545s-.023-1.662.763-1.907c.775-.241 1.77 1.607 2.825 2.318.797.537 1.403.42 1.403.42l2.82-.039s1.476-.09.777-1.228c-.058-.093-.409-.842-2.097-2.382-1.77-1.61-1.532-1.35.598-4.138 1.297-1.697 1.816-2.733 1.653-3.176-.153-.424-1.108-.312-1.108-.312l-3.175.02s-.236-.032-.41.07c-.17.101-.281.335-.281.335s-.502 1.313-1.173 2.43c-1.414 2.357-1.979 2.482-2.21 2.336-.539-.342-.404-1.371-.404-2.102 0-2.285.353-3.237-.687-3.483-.345-.082-.6-.136-1.482-.145C9.22.052 8.262.067 7.718.328c-.361.173-.64.56-.47.583.21.027.685.125.937.462.326.435.314 1.41.314 1.41s.187 2.69-.437 3.023c-.427.23-1.014-.238-2.275-2.377-.646-1.095-1.133-2.305-1.133-2.305S4.56.897 4.392.776a1.308 1.308 0 00-.487-.193L.887.603S.434.614.267.807c-.147.172-.01.527-.01.527s2.362 5.426 5.037 8.16c2.453 2.507 5.238 2.343 5.238 2.343h1.262z" fill="#2B2F3E"/></svg>