<svg width="23" height="30" fill="none" xmlns="http://www.w3.org/2000/svg"><path d="M8.672.75a3.18 3.18 0 00-.975.193 3.063 3.063 0 00-2.043 3.038.348.348 0 01-.13.29.348.348 0 01-.305.075 3.065 3.065 0 00-3.35 1.485 3.062 3.062 0 00.387 3.642.36.36 0 01-.099.56 3.064 3.064 0 00-1.609 3.29 3.064 3.064 0 002.638 2.541.35.35 0 01.263.175c.04.069.074.18.019.317a3.05 3.05 0 00.389 3.018L.304 25.5h4.812v.003l2.05 4.492 4.313-7.189 4.313 7.19L17.84 25.5h4.812l-3.531-6.088a3.05 3.05 0 00.413-3.056.361.361 0 01.022-.317.35.35 0 01.263-.175 3.064 3.064 0 002.637-2.54 3.064 3.064 0 00-1.609-3.29.36.36 0 01-.1-.561 3.062 3.062 0 00.388-3.642 3.066 3.066 0 00-3.35-1.485.347.347 0 01-.305-.075.35.35 0 01-.13-.29A3.065 3.065 0 0015.309.943a3.066 3.066 0 00-3.52 1.013c-.18.23-.39.23-.57 0A3.066 3.066 0 008.672.75zm.188 2.76c.069.02.131.063.185.132 1.184 1.527 3.723 1.525 4.91 0a.333.333 0 01.408-.118c.163.06.244.179.239.352a3.09 3.09 0 001.109 2.497c.74.622 1.703.862 2.65.658.175-.037.302.022.39.172.088.152.071.295-.046.425a3.09 3.09 0 00-.757 2.626c.17.952.755 1.76 1.609 2.21.155.081.218.21.188.382-.03.171-.135.269-.306.292a3.098 3.098 0 00-2.27 1.528 3.084 3.084 0 00-.185 2.724c.066.16.031.3-.102.413-.135.111-.28.122-.425.03a3.093 3.093 0 00-2.717-.29 3.1 3.1 0 00-1.899 1.968c-.104.333-.577.333-.685 0a3.088 3.088 0 00-1.896-1.966 3.075 3.075 0 00-2.715.29c-.148.094-.288.084-.424-.03-.132-.112-.17-.25-.105-.41a3.096 3.096 0 00-.185-2.729 3.089 3.089 0 00-2.27-1.525c-.171-.023-.274-.123-.303-.295a.332.332 0 01.185-.382 3.091 3.091 0 001.609-2.207 3.087 3.087 0 00-.755-2.627.334.334 0 01-.045-.424c.088-.15.21-.21.386-.172a3.068 3.068 0 002.651-.658A3.082 3.082 0 008.4 3.88a.337.337 0 01.238-.355.36.36 0 01.223-.013zm5.105 4.802l-3.152 3.153-1.778-1.778-1.945 1.947 3.723 3.723 5.097-5.098-1.945-1.947zM8.181 20.105a.37.37 0 01.14.024.35.35 0 01.22.228c.127.397.328.744.577 1.045L7.456 24.17c-.487-.845-1.35-1.421-2.34-1.421H5.08L6.3 20.64a3.1 3.1 0 001.705-.479.352.352 0 01.175-.056zm6.644 0a.352.352 0 01.177.056 3.095 3.095 0 001.652.478l1.224 2.11h-.037c-.989 0-1.853.575-2.34 1.422l-1.643-2.74c.262-.307.473-.664.607-1.074a.354.354 0 01.22-.228.366.366 0 01.14-.024z" fill="#5C6BC0"/></svg>