<svg width="877" height="147" viewBox="0 0 877 147" fill="none" xmlns="http://www.w3.org/2000/svg">
<g opacity="0.75">
<path d="M37.6675 3.72496H64.66L101.87 112H76.25L67.8625 87.7525H34.16L25.925 112H0.305L37.6675 3.72496ZM63.745 70.52L51.0875 28.8875L38.125 70.52H63.745ZM103.742 71.8925C103.742 64.1658 105.216 57.2016 108.164 51C111.214 44.6966 115.383 39.715 120.669 36.055C126.058 32.2933 132.208 30.4125 139.122 30.4125C144.713 30.4125 149.746 31.785 154.219 34.53C158.794 37.1733 162.302 40.6808 164.742 45.0525V0.674964H189.142V84.855C189.142 87.295 189.498 89.0233 190.209 90.04C191.023 91.0567 192.395 91.6158 194.327 91.7175V112C190.057 112.813 186.6 113.22 183.957 113.22C179.788 113.22 176.383 112.305 173.739 110.475C171.096 108.645 169.52 106.103 169.012 102.85L168.554 98.7325C165.708 103.714 161.844 107.425 156.964 109.865C152.084 112.305 146.95 113.525 141.562 113.525C134.242 113.525 127.735 111.746 122.042 108.187C116.348 104.527 111.875 99.5458 108.622 93.2425C105.368 86.9392 103.742 79.8225 103.742 71.8925ZM164.894 81.805V65.03C163.369 60.9633 160.878 57.6591 157.422 55.1175C154.067 52.4741 150.559 51.1525 146.899 51.1525C143.443 51.1525 140.342 52.1183 137.597 54.05C134.852 55.9816 132.717 58.5741 131.192 61.8275C129.667 65.0808 128.904 68.5883 128.904 72.35C128.904 78.2467 130.683 83.1775 134.242 87.1425C137.902 91.0058 142.528 92.9375 148.119 92.9375C151.474 92.9375 154.677 91.9717 157.727 90.04C160.878 88.0067 163.268 85.2617 164.894 81.805ZM228.39 112L200.025 31.9375H225.188L242.725 90.04L260.263 31.9375H283.138L254.925 112H228.39ZM285.272 88.0575C285.272 82.7708 286.746 78.145 289.694 74.18C292.642 70.215 296.709 67.1142 301.894 64.8775C307.079 62.5391 313.027 61.37 319.737 61.37C322.99 61.37 326.192 61.675 329.344 62.285C332.496 62.7933 335.241 63.5558 337.579 64.5725V61.065C337.579 52.0166 332.242 47.4925 321.567 47.4925C317.093 47.4925 312.874 48.255 308.909 49.78C305.046 51.305 300.928 53.4908 296.557 56.3375L289.237 40.7825C299.81 33.8691 311.4 30.4125 324.007 30.4125C336.003 30.4125 345.306 33.31 351.914 39.105C358.624 44.7983 361.979 53.0841 361.979 63.9625V84.855C361.979 87.295 362.335 89.0233 363.047 90.04C363.86 91.0567 365.232 91.6158 367.164 91.7175V112C365.029 112.407 363.097 112.712 361.369 112.915C359.641 113.118 358.116 113.22 356.794 113.22C352.219 113.22 348.712 112.305 346.272 110.475C343.933 108.645 342.459 106.154 341.849 103.002L341.392 99.495C337.833 104.07 333.563 107.577 328.582 110.017C323.6 112.356 318.466 113.525 313.179 113.525C307.892 113.525 303.114 112.407 298.844 110.17C294.676 107.933 291.372 104.934 288.932 101.172C286.492 97.3092 285.272 92.9375 285.272 88.0575ZM333.767 91.1075C336.308 89.0742 337.579 86.99 337.579 84.855V77.6875C335.444 76.8742 333.106 76.2642 330.564 75.8575C328.124 75.3492 325.887 75.095 323.854 75.095C319.279 75.095 315.517 76.1117 312.569 78.145C309.722 80.1783 308.299 82.7708 308.299 85.9225C308.299 88.6675 309.367 91.0567 311.502 93.09C313.738 95.0217 316.687 95.9875 320.347 95.9875C322.787 95.9875 325.227 95.53 327.667 94.615C330.107 93.7 332.14 92.5308 333.767 91.1075ZM456.825 112H432.425V67.0125C432.425 61.7258 431.408 57.9133 429.375 55.575C427.443 53.135 424.85 51.915 421.597 51.915C418.242 51.915 414.836 53.2366 411.38 55.88C407.923 58.5233 405.483 61.9291 404.06 66.0975V112H379.66V31.9375H401.62V45.3575C404.568 40.6808 408.736 37.0208 414.125 34.3775C419.513 31.7341 425.715 30.4125 432.73 30.4125C437.915 30.4125 442.083 31.3783 445.235 33.31C448.488 35.14 450.928 37.58 452.555 40.63C454.283 43.5783 455.401 46.8316 455.91 50.39C456.52 53.9483 456.825 57.405 456.825 60.76V112ZM524.737 107.73C521.382 109.153 517.519 110.475 513.147 111.695C508.877 112.915 504.556 113.525 500.185 113.525C496.118 113.525 492.407 112.864 489.052 111.542C485.697 110.119 483.003 107.832 480.97 104.68C478.936 101.528 477.92 97.36 477.92 92.175V50.39H467.702V31.9375H477.92V6.46996H502.32V31.9375H518.637V50.39H502.32V83.7875C502.32 86.4308 502.981 88.3625 504.302 89.5825C505.624 90.7008 507.301 91.26 509.335 91.26C511.165 91.26 513.046 90.955 514.977 90.345C516.909 89.735 518.586 89.0742 520.01 88.3625L524.737 107.73ZM529.212 88.0575C529.212 82.7708 530.686 78.145 533.635 74.18C536.583 70.215 540.65 67.1142 545.835 64.8775C551.02 62.5391 556.967 61.37 563.677 61.37C566.93 61.37 570.133 61.675 573.285 62.285C576.436 62.7933 579.181 63.5558 581.52 64.5725V61.065C581.52 52.0166 576.182 47.4925 565.507 47.4925C561.034 47.4925 556.815 48.255 552.85 49.78C548.986 51.305 544.869 53.4908 540.497 56.3375L533.177 40.7825C543.75 33.8691 555.34 30.4125 567.947 30.4125C579.944 30.4125 589.246 33.31 595.855 39.105C602.565 44.7983 605.92 53.0841 605.92 63.9625V84.855C605.92 87.295 606.275 89.0233 606.987 90.04C607.8 91.0567 609.173 91.6158 611.105 91.7175V112C608.97 112.407 607.038 112.712 605.31 112.915C603.581 113.118 602.056 113.22 600.735 113.22C596.16 113.22 592.652 112.305 590.212 110.475C587.874 108.645 586.4 106.154 585.79 103.002L585.332 99.495C581.774 104.07 577.504 107.577 572.522 110.017C567.54 112.356 562.406 113.525 557.12 113.525C551.833 113.525 547.055 112.407 542.785 110.17C538.616 107.933 535.312 104.934 532.872 101.172C530.432 97.3092 529.212 92.9375 529.212 88.0575ZM577.707 91.1075C580.249 89.0742 581.52 86.99 581.52 84.855V77.6875C579.385 76.8742 577.046 76.2642 574.505 75.8575C572.065 75.3492 569.828 75.095 567.795 75.095C563.22 75.095 559.458 76.1117 556.51 78.145C553.663 80.1783 552.24 82.7708 552.24 85.9225C552.24 88.6675 553.307 91.0567 555.442 93.09C557.679 95.0217 560.627 95.9875 564.287 95.9875C566.727 95.9875 569.167 95.53 571.607 94.615C574.047 93.7 576.08 92.5308 577.707 91.1075ZM654.71 112.305C647.593 112.305 641.392 110.475 636.105 106.815C630.818 103.155 626.65 98.275 623.6 92.175C620.652 86.075 619.178 79.3142 619.178 71.8925C619.178 64.0642 620.753 57.0491 623.905 50.8475C627.057 44.5441 631.428 39.5625 637.02 35.9025C642.612 32.2425 649.068 30.4125 656.388 30.4125C662.386 30.4125 667.673 31.7341 672.248 34.3775C676.823 36.9191 680.483 40.4775 683.228 45.0525V31.9375H704.425V106.51C704.425 114.643 702.443 121.658 698.478 127.555C694.614 133.452 689.175 137.976 682.16 141.128C675.247 144.381 667.215 146.008 658.065 146.008C649.525 146.008 642.154 144.584 635.953 141.738C629.853 138.993 624.515 135.078 619.94 129.995L633.055 116.728C636.003 120.083 639.663 122.726 644.035 124.658C648.508 126.691 653.185 127.708 658.065 127.708C662.03 127.708 665.639 126.996 668.893 125.573C672.248 124.149 674.942 121.862 676.975 118.71C679.008 115.66 680.025 111.593 680.025 106.51V98.7325C677.585 103.206 674.027 106.612 669.35 108.95C664.775 111.187 659.895 112.305 654.71 112.305ZM663.098 92.9375C666.859 92.9375 670.214 91.9208 673.163 89.8875C676.111 87.7525 678.398 85.0583 680.025 81.805V65.03C678.398 60.8616 675.908 57.5066 672.553 54.965C669.198 52.4233 665.639 51.1525 661.878 51.1525C658.421 51.1525 655.32 52.1691 652.575 54.2025C649.932 56.1341 647.848 58.7266 646.323 61.98C644.798 65.2333 644.035 68.7408 644.035 72.5025C644.035 78.3992 645.865 83.2792 649.525 87.1425C653.185 91.0058 657.709 92.9375 663.098 92.9375ZM759.424 113.525C750.376 113.525 742.649 111.644 736.244 107.882C729.839 104.121 724.908 99.1392 721.452 92.9375C718.097 86.7358 716.419 80.0258 716.419 72.8075C716.419 65.0808 718.097 58.015 721.452 51.61C724.807 45.205 729.687 40.0708 736.092 36.2075C742.497 32.3441 750.274 30.4125 759.424 30.4125C768.472 30.4125 776.199 32.3441 782.604 36.2075C789.009 40.0708 793.838 45.1541 797.092 51.4575C800.447 57.7608 802.124 64.5217 802.124 71.74C802.124 74.6883 801.921 77.2808 801.514 79.5175H742.344C742.751 84.9058 744.682 89.0233 748.139 91.87C751.697 94.615 755.713 95.9875 760.187 95.9875C763.745 95.9875 767.151 95.1233 770.404 93.395C773.657 91.6667 775.894 89.3283 777.114 86.38L797.854 92.175C794.702 98.4783 789.772 103.612 783.062 107.577C776.453 111.542 768.574 113.525 759.424 113.525ZM741.734 64.5725H776.504C775.996 59.4891 774.115 55.4733 770.862 52.525C767.71 49.475 763.796 47.95 759.119 47.95C754.442 47.95 750.477 49.475 747.224 52.525C744.072 55.575 742.242 59.5908 741.734 64.5725ZM843.835 113.525C836.922 113.525 830.212 112.407 823.705 110.17C817.3 107.832 811.861 104.527 807.388 100.257L815.775 84.855C825.637 92.0733 834.736 95.6825 843.073 95.6825C846.224 95.6825 848.664 95.1742 850.393 94.1575C852.121 93.1408 852.985 91.565 852.985 89.43C852.985 87.1933 851.816 85.6175 849.478 84.7025C847.139 83.6858 843.683 82.5167 839.108 81.195C833.008 79.1617 827.924 77.1792 823.858 75.2475C819.791 73.3158 816.741 70.9775 814.708 68.2325C812.674 65.4875 811.658 61.8275 811.658 57.2525C811.658 49.2208 814.657 42.765 820.655 37.885C826.654 32.9033 834.787 30.4125 845.055 30.4125C850.545 30.4125 855.883 31.2766 861.068 33.005C866.354 34.7333 871.285 37.6308 875.86 41.6975L866.405 56.9475C861.83 53.7958 857.764 51.5083 854.205 50.085C850.647 48.6616 847.19 47.95 843.835 47.95C841.192 47.95 838.955 48.4583 837.125 49.475C835.295 50.39 834.38 52.0166 834.38 54.355C834.38 56.5916 835.397 58.2691 837.43 59.3875C839.464 60.4041 842.615 61.5225 846.885 62.7425C853.392 64.6741 858.831 66.6567 863.203 68.69C867.676 70.6217 870.98 73.0617 873.115 76.01C875.352 78.8567 876.47 82.6692 876.47 87.4475C876.47 95.5808 873.522 101.986 867.625 106.662C861.729 111.237 853.799 113.525 843.835 113.525Z" fill="white"/>
<path d="M37.6675 3.72496H64.66L101.87 112H76.25L67.8625 87.7525H34.16L25.925 112H0.305L37.6675 3.72496ZM63.745 70.52L51.0875 28.8875L38.125 70.52H63.745ZM103.742 71.8925C103.742 64.1658 105.216 57.2016 108.164 51C111.214 44.6966 115.383 39.715 120.669 36.055C126.058 32.2933 132.208 30.4125 139.122 30.4125C144.713 30.4125 149.746 31.785 154.219 34.53C158.794 37.1733 162.302 40.6808 164.742 45.0525V0.674964H189.142V84.855C189.142 87.295 189.498 89.0233 190.209 90.04C191.023 91.0567 192.395 91.6158 194.327 91.7175V112C190.057 112.813 186.6 113.22 183.957 113.22C179.788 113.22 176.383 112.305 173.739 110.475C171.096 108.645 169.52 106.103 169.012 102.85L168.554 98.7325C165.708 103.714 161.844 107.425 156.964 109.865C152.084 112.305 146.95 113.525 141.562 113.525C134.242 113.525 127.735 111.746 122.042 108.187C116.348 104.527 111.875 99.5458 108.622 93.2425C105.368 86.9392 103.742 79.8225 103.742 71.8925ZM164.894 81.805V65.03C163.369 60.9633 160.878 57.6591 157.422 55.1175C154.067 52.4741 150.559 51.1525 146.899 51.1525C143.443 51.1525 140.342 52.1183 137.597 54.05C134.852 55.9816 132.717 58.5741 131.192 61.8275C129.667 65.0808 128.904 68.5883 128.904 72.35C128.904 78.2467 130.683 83.1775 134.242 87.1425C137.902 91.0058 142.528 92.9375 148.119 92.9375C151.474 92.9375 154.677 91.9717 157.727 90.04C160.878 88.0067 163.268 85.2617 164.894 81.805ZM228.39 112L200.025 31.9375H225.188L242.725 90.04L260.263 31.9375H283.138L254.925 112H228.39ZM285.272 88.0575C285.272 82.7708 286.746 78.145 289.694 74.18C292.642 70.215 296.709 67.1142 301.894 64.8775C307.079 62.5391 313.027 61.37 319.737 61.37C322.99 61.37 326.192 61.675 329.344 62.285C332.496 62.7933 335.241 63.5558 337.579 64.5725V61.065C337.579 52.0166 332.242 47.4925 321.567 47.4925C317.093 47.4925 312.874 48.255 308.909 49.78C305.046 51.305 300.928 53.4908 296.557 56.3375L289.237 40.7825C299.81 33.8691 311.4 30.4125 324.007 30.4125C336.003 30.4125 345.306 33.31 351.914 39.105C358.624 44.7983 361.979 53.0841 361.979 63.9625V84.855C361.979 87.295 362.335 89.0233 363.047 90.04C363.86 91.0567 365.232 91.6158 367.164 91.7175V112C365.029 112.407 363.097 112.712 361.369 112.915C359.641 113.118 358.116 113.22 356.794 113.22C352.219 113.22 348.712 112.305 346.272 110.475C343.933 108.645 342.459 106.154 341.849 103.002L341.392 99.495C337.833 104.07 333.563 107.577 328.582 110.017C323.6 112.356 318.466 113.525 313.179 113.525C307.892 113.525 303.114 112.407 298.844 110.17C294.676 107.933 291.372 104.934 288.932 101.172C286.492 97.3092 285.272 92.9375 285.272 88.0575ZM333.767 91.1075C336.308 89.0742 337.579 86.99 337.579 84.855V77.6875C335.444 76.8742 333.106 76.2642 330.564 75.8575C328.124 75.3492 325.887 75.095 323.854 75.095C319.279 75.095 315.517 76.1117 312.569 78.145C309.722 80.1783 308.299 82.7708 308.299 85.9225C308.299 88.6675 309.367 91.0567 311.502 93.09C313.738 95.0217 316.687 95.9875 320.347 95.9875C322.787 95.9875 325.227 95.53 327.667 94.615C330.107 93.7 332.14 92.5308 333.767 91.1075ZM456.825 112H432.425V67.0125C432.425 61.7258 431.408 57.9133 429.375 55.575C427.443 53.135 424.85 51.915 421.597 51.915C418.242 51.915 414.836 53.2366 411.38 55.88C407.923 58.5233 405.483 61.9291 404.06 66.0975V112H379.66V31.9375H401.62V45.3575C404.568 40.6808 408.736 37.0208 414.125 34.3775C419.513 31.7341 425.715 30.4125 432.73 30.4125C437.915 30.4125 442.083 31.3783 445.235 33.31C448.488 35.14 450.928 37.58 452.555 40.63C454.283 43.5783 455.401 46.8316 455.91 50.39C456.52 53.9483 456.825 57.405 456.825 60.76V112ZM524.737 107.73C521.382 109.153 517.519 110.475 513.147 111.695C508.877 112.915 504.556 113.525 500.185 113.525C496.118 113.525 492.407 112.864 489.052 111.542C485.697 110.119 483.003 107.832 480.97 104.68C478.936 101.528 477.92 97.36 477.92 92.175V50.39H467.702V31.9375H477.92V6.46996H502.32V31.9375H518.637V50.39H502.32V83.7875C502.32 86.4308 502.981 88.3625 504.302 89.5825C505.624 90.7008 507.301 91.26 509.335 91.26C511.165 91.26 513.046 90.955 514.977 90.345C516.909 89.735 518.586 89.0742 520.01 88.3625L524.737 107.73ZM529.212 88.0575C529.212 82.7708 530.686 78.145 533.635 74.18C536.583 70.215 540.65 67.1142 545.835 64.8775C551.02 62.5391 556.967 61.37 563.677 61.37C566.93 61.37 570.133 61.675 573.285 62.285C576.436 62.7933 579.181 63.5558 581.52 64.5725V61.065C581.52 52.0166 576.182 47.4925 565.507 47.4925C561.034 47.4925 556.815 48.255 552.85 49.78C548.986 51.305 544.869 53.4908 540.497 56.3375L533.177 40.7825C543.75 33.8691 555.34 30.4125 567.947 30.4125C579.944 30.4125 589.246 33.31 595.855 39.105C602.565 44.7983 605.92 53.0841 605.92 63.9625V84.855C605.92 87.295 606.275 89.0233 606.987 90.04C607.8 91.0567 609.173 91.6158 611.105 91.7175V112C608.97 112.407 607.038 112.712 605.31 112.915C603.581 113.118 602.056 113.22 600.735 113.22C596.16 113.22 592.652 112.305 590.212 110.475C587.874 108.645 586.4 106.154 585.79 103.002L585.332 99.495C581.774 104.07 577.504 107.577 572.522 110.017C567.54 112.356 562.406 113.525 557.12 113.525C551.833 113.525 547.055 112.407 542.785 110.17C538.616 107.933 535.312 104.934 532.872 101.172C530.432 97.3092 529.212 92.9375 529.212 88.0575ZM577.707 91.1075C580.249 89.0742 581.52 86.99 581.52 84.855V77.6875C579.385 76.8742 577.046 76.2642 574.505 75.8575C572.065 75.3492 569.828 75.095 567.795 75.095C563.22 75.095 559.458 76.1117 556.51 78.145C553.663 80.1783 552.24 82.7708 552.24 85.9225C552.24 88.6675 553.307 91.0567 555.442 93.09C557.679 95.0217 560.627 95.9875 564.287 95.9875C566.727 95.9875 569.167 95.53 571.607 94.615C574.047 93.7 576.08 92.5308 577.707 91.1075ZM654.71 112.305C647.593 112.305 641.392 110.475 636.105 106.815C630.818 103.155 626.65 98.275 623.6 92.175C620.652 86.075 619.178 79.3142 619.178 71.8925C619.178 64.0642 620.753 57.0491 623.905 50.8475C627.057 44.5441 631.428 39.5625 637.02 35.9025C642.612 32.2425 649.068 30.4125 656.388 30.4125C662.386 30.4125 667.673 31.7341 672.248 34.3775C676.823 36.9191 680.483 40.4775 683.228 45.0525V31.9375H704.425V106.51C704.425 114.643 702.443 121.658 698.478 127.555C694.614 133.452 689.175 137.976 682.16 141.128C675.247 144.381 667.215 146.008 658.065 146.008C649.525 146.008 642.154 144.584 635.953 141.738C629.853 138.993 624.515 135.078 619.94 129.995L633.055 116.728C636.003 120.083 639.663 122.726 644.035 124.658C648.508 126.691 653.185 127.708 658.065 127.708C662.03 127.708 665.639 126.996 668.893 125.573C672.248 124.149 674.942 121.862 676.975 118.71C679.008 115.66 680.025 111.593 680.025 106.51V98.7325C677.585 103.206 674.027 106.612 669.35 108.95C664.775 111.187 659.895 112.305 654.71 112.305ZM663.098 92.9375C666.859 92.9375 670.214 91.9208 673.163 89.8875C676.111 87.7525 678.398 85.0583 680.025 81.805V65.03C678.398 60.8616 675.908 57.5066 672.553 54.965C669.198 52.4233 665.639 51.1525 661.878 51.1525C658.421 51.1525 655.32 52.1691 652.575 54.2025C649.932 56.1341 647.848 58.7266 646.323 61.98C644.798 65.2333 644.035 68.7408 644.035 72.5025C644.035 78.3992 645.865 83.2792 649.525 87.1425C653.185 91.0058 657.709 92.9375 663.098 92.9375ZM759.424 113.525C750.376 113.525 742.649 111.644 736.244 107.882C729.839 104.121 724.908 99.1392 721.452 92.9375C718.097 86.7358 716.419 80.0258 716.419 72.8075C716.419 65.0808 718.097 58.015 721.452 51.61C724.807 45.205 729.687 40.0708 736.092 36.2075C742.497 32.3441 750.274 30.4125 759.424 30.4125C768.472 30.4125 776.199 32.3441 782.604 36.2075C789.009 40.0708 793.838 45.1541 797.092 51.4575C800.447 57.7608 802.124 64.5217 802.124 71.74C802.124 74.6883 801.921 77.2808 801.514 79.5175H742.344C742.751 84.9058 744.682 89.0233 748.139 91.87C751.697 94.615 755.713 95.9875 760.187 95.9875C763.745 95.9875 767.151 95.1233 770.404 93.395C773.657 91.6667 775.894 89.3283 777.114 86.38L797.854 92.175C794.702 98.4783 789.772 103.612 783.062 107.577C776.453 111.542 768.574 113.525 759.424 113.525ZM741.734 64.5725H776.504C775.996 59.4891 774.115 55.4733 770.862 52.525C767.71 49.475 763.796 47.95 759.119 47.95C754.442 47.95 750.477 49.475 747.224 52.525C744.072 55.575 742.242 59.5908 741.734 64.5725ZM843.835 113.525C836.922 113.525 830.212 112.407 823.705 110.17C817.3 107.832 811.861 104.527 807.388 100.257L815.775 84.855C825.637 92.0733 834.736 95.6825 843.073 95.6825C846.224 95.6825 848.664 95.1742 850.393 94.1575C852.121 93.1408 852.985 91.565 852.985 89.43C852.985 87.1933 851.816 85.6175 849.478 84.7025C847.139 83.6858 843.683 82.5167 839.108 81.195C833.008 79.1617 827.924 77.1792 823.858 75.2475C819.791 73.3158 816.741 70.9775 814.708 68.2325C812.674 65.4875 811.658 61.8275 811.658 57.2525C811.658 49.2208 814.657 42.765 820.655 37.885C826.654 32.9033 834.787 30.4125 845.055 30.4125C850.545 30.4125 855.883 31.2766 861.068 33.005C866.354 34.7333 871.285 37.6308 875.86 41.6975L866.405 56.9475C861.83 53.7958 857.764 51.5083 854.205 50.085C850.647 48.6616 847.19 47.95 843.835 47.95C841.192 47.95 838.955 48.4583 837.125 49.475C835.295 50.39 834.38 52.0166 834.38 54.355C834.38 56.5916 835.397 58.2691 837.43 59.3875C839.464 60.4041 842.615 61.5225 846.885 62.7425C853.392 64.6741 858.831 66.6567 863.203 68.69C867.676 70.6217 870.98 73.0617 873.115 76.01C875.352 78.8567 876.47 82.6692 876.47 87.4475C876.47 95.5808 873.522 101.986 867.625 106.662C861.729 111.237 853.799 113.525 843.835 113.525Z" fill="url(#paint0_linear)" fill-opacity="0.8"/>
</g>
<defs>
<linearGradient id="paint0_linear" x1="1497.45" y1="-132.752" x2="123.86" y2="113.73" gradientUnits="userSpaceOnUse">
<stop stop-color="#F9F9FE"/>
<stop offset="1" stop-color="#F9F9FE" stop-opacity="0.56"/>
</linearGradient>
</defs>
</svg>
