<svg width="14" height="14" viewBox="0 0 14 14" fill="none" xmlns="http://www.w3.org/2000/svg">
<path d="M7.00008 1.1665C3.78358 1.1665 1.16675 3.78334 1.16675 6.99984C1.16675 10.2163 3.78358 12.8332 7.00008 12.8332C10.2166 12.8332 12.8334 10.2163 12.8334 6.99984C12.8334 6.343 12.7191 5.71312 12.5178 5.12337L11.5733 6.06787C11.6346 6.36887 11.6667 6.68075 11.6667 6.99984C11.6667 9.57292 9.57317 11.6665 7.00008 11.6665C4.427 11.6665 2.33342 9.57292 2.33342 6.99984C2.33342 4.42675 4.427 2.33317 7.00008 2.33317C7.95267 2.33317 8.8387 2.62127 9.57837 3.11361L10.4135 2.27848C9.45216 1.58198 8.27467 1.1665 7.00008 1.1665Z" fill="#B9D1FB"/>
<path d="M12.75 2L6.74577 8.00423L4.82487 6.08333L4 6.9082L6.74577 9.65397L13.5749 2.82487L12.75 2Z" fill="#5C6BC0"/>
</svg>
