<svg width="22" height="12" viewBox="0 0 22 12" fill="none" xmlns="http://www.w3.org/2000/svg">
<path fill-rule="evenodd" clip-rule="evenodd" d="M11.7945 11.8382C11.7945 11.8382 12.1757 11.7966 12.3709 11.5908C12.5496 11.4022 12.5434 11.0463 12.5434 11.0463C12.5434 11.0463 12.5196 9.38435 13.3057 9.13897C14.0805 8.89765 15.0752 10.7461 16.1309 11.4569C16.9284 11.9943 17.5337 11.8767 17.5337 11.8767L20.3548 11.8382C20.3548 11.8382 21.8299 11.7489 21.1306 10.6102C21.0727 10.517 20.7225 9.76763 19.0336 8.22843C17.2641 6.61723 17.5017 6.87782 19.6317 4.09042C20.9291 2.39303 21.4477 1.35676 21.2855 0.913652C21.1316 0.489812 20.1771 0.602363 20.1771 0.602363L17.0017 0.621629C17.0017 0.621629 16.7662 0.590195 16.5916 0.692606C16.4212 0.792989 16.3107 1.02722 16.3107 1.02722C16.3107 1.02722 15.8086 2.34031 15.1382 3.4577C13.7241 5.81417 13.1591 5.93889 12.9277 5.79287C12.3895 5.45117 12.5238 4.42199 12.5238 3.69091C12.5238 1.40644 12.877 0.454324 11.8368 0.207929C11.4918 0.125797 11.2377 0.072057 10.3545 0.0629313C9.22133 0.0517776 8.26273 0.0669872 7.71938 0.327577C7.35784 0.500966 7.07893 0.888302 7.24937 0.91061C7.45907 0.937987 7.93424 1.03634 8.18629 1.37298C8.51168 1.80797 8.50031 2.78341 8.50031 2.78341C8.50031 2.78341 8.68728 5.47246 8.06336 5.80605C7.63571 6.03521 7.04898 5.56777 5.78771 3.42931C5.1421 2.33422 4.65453 1.12354 4.65453 1.12354C4.65453 1.12354 4.56053 0.897428 4.39215 0.775752C4.18866 0.628726 3.90459 0.583098 3.90459 0.583098L0.887251 0.602363C0.887251 0.602363 0.433773 0.614531 0.267463 0.808199C0.119747 0.97956 0.2561 1.33546 0.2561 1.33546C0.2561 1.33546 2.61853 6.76121 5.29394 9.49589C7.74727 12.0024 10.5322 11.8382 10.5322 11.8382H11.7945Z" fill="#2B2F3E"/>
</svg>
