<svg width="28" height="31" viewBox="0 0 28 31" fill="none" xmlns="http://www.w3.org/2000/svg">
<path d="M3.25 0.750002C1.7375 0.750002 0.5 1.9875 0.5 3.5V25.5C0.5 27.0125 1.7375 28.25 3.25 28.25H14.25C13.7962 27.4387 13.4394 26.5175 13.1919 25.5H3.25V3.5H12.875V10.375H19.75V13.7856L20.698 13.3586C21.2755 13.0974 21.9087 13.0567 22.5 13.2217V9L14.25 0.75L3.25 0.750002ZM6 14.5V17.25H13.2456C13.5344 16.755 13.9742 16.3424 14.5105 16.1086L17 15.0076V14.5H6ZM21.8125 15.875L15.625 18.625V22.75C15.625 28.1331 20.0525 30.6466 21.8125 31C23.5725 30.6466 28 28.1331 28 22.75V18.625L21.8125 15.875ZM21.8125 18.8855L25.25 20.4136V22.75C25.25 25.9524 22.9592 27.5687 21.8125 28.105C20.6657 27.5687 18.375 25.9524 18.375 22.75V20.4136L21.8125 18.8855ZM6 20V22.75H12.875V20H6Z" fill="#5C6BC0"/>
</svg>
