<svg width="23" height="30" viewBox="0 0 23 30" fill="none" xmlns="http://www.w3.org/2000/svg">
<path d="M8.67212 0.749935C8.34783 0.76203 8.0197 0.825388 7.69727 0.943294C6.40614 1.41217 5.60269 2.60565 5.65356 3.98065C5.65907 4.12777 5.58653 4.21844 5.52466 4.27069C5.46141 4.32294 5.36013 4.37613 5.21851 4.34588C3.87651 4.05438 2.55713 4.64024 1.86963 5.83099C1.18076 7.02174 1.33372 8.45234 2.25635 9.47259C2.35948 9.58672 2.35597 9.71412 2.34497 9.77874C2.32985 9.85849 2.28623 9.96512 2.15698 10.0339C0.941485 10.6774 0.309091 11.9693 0.548341 13.3237C0.787591 14.678 1.82292 15.6758 3.18555 15.8642C3.32855 15.8834 3.40886 15.97 3.44873 16.0388C3.4886 16.1075 3.52253 16.2195 3.46753 16.3556C3.04468 17.397 3.20993 18.5159 3.85693 19.3742L0.303955 25.4999H5.11646V25.5026L7.16553 29.9955L11.4785 22.8063L15.7915 29.9955L17.8406 25.4999H22.6531L19.1216 19.4118C19.7918 18.549 19.965 17.4138 19.5352 16.3557C19.4815 16.2209 19.5181 16.1089 19.5566 16.0388C19.5965 15.97 19.6768 15.8834 19.8198 15.8642C21.1825 15.6758 22.2178 14.678 22.457 13.3237C22.6963 11.9693 22.0639 10.6774 20.8484 10.0339C20.7191 9.96512 20.6755 9.85849 20.6604 9.77874C20.6494 9.71412 20.6459 9.58672 20.749 9.47259C21.6716 8.45234 21.8246 7.02312 21.1357 5.83099C20.4482 4.63887 19.1261 4.05576 17.7869 4.34588C17.6452 4.37613 17.5426 4.32294 17.4807 4.27069C17.4188 4.21844 17.3463 4.1264 17.3518 3.98065C17.4027 2.60702 16.5992 1.41355 15.3081 0.943296C14.0156 0.473046 12.633 0.869497 11.7874 1.95575C11.6072 2.18537 11.3981 2.18675 11.218 1.95575C10.5828 1.14106 9.64497 0.71365 8.67212 0.749937V0.749935ZM8.86011 3.51068C8.92851 3.52976 8.9911 3.57283 9.04541 3.64227C10.2293 5.16852 12.768 5.16714 13.9546 3.64227C14.0618 3.50477 14.2005 3.46498 14.3628 3.52411C14.5264 3.58323 14.6073 3.70266 14.6018 3.87591C14.5661 4.84116 14.9698 5.75197 15.7109 6.37347C16.4507 6.99497 17.4142 7.23493 18.3616 7.03143C18.5362 6.9943 18.663 7.05343 18.751 7.2033C18.839 7.35455 18.8222 7.49837 18.7053 7.62762C18.0563 8.34537 17.7802 9.30121 17.948 10.2541C18.1171 11.2056 18.7028 12.0133 19.5566 12.4643C19.712 12.5454 19.7749 12.6738 19.7446 12.8456C19.7144 13.0175 19.6104 13.115 19.4385 13.1384C18.4801 13.2717 17.6532 13.8291 17.1692 14.6664C16.6866 15.5024 16.6195 16.4958 16.9839 17.3896C17.0499 17.5505 17.0152 17.6904 16.8818 17.8032C16.7471 17.9145 16.6019 17.9248 16.4575 17.8327C15.6366 17.3184 14.6486 17.2127 13.7397 17.5427C12.8323 17.874 12.1394 18.5899 11.8411 19.5112C11.7366 19.8439 11.2635 19.8439 11.1563 19.5112C10.8593 18.5913 10.1678 17.8753 9.26026 17.5453C8.91101 17.4175 8.55297 17.3547 8.19409 17.3547C7.61934 17.3547 7.04842 17.5164 6.54517 17.8354C6.39667 17.9289 6.25698 17.9186 6.12085 17.8058C5.98885 17.6931 5.95149 17.5545 6.01612 17.395C6.38049 16.4998 6.31344 15.5038 5.83081 14.6664C5.34819 13.8277 4.5199 13.2744 3.56153 13.141C3.38965 13.1177 3.28693 13.0175 3.25806 12.8456C3.22781 12.6751 3.28936 12.5468 3.44336 12.4643C4.29724 12.0133 4.88288 11.2083 5.052 10.2568C5.21975 9.30389 4.94636 8.34668 4.29736 7.6303C4.18049 7.49968 4.16508 7.35724 4.25171 7.20599C4.33971 7.05611 4.46243 6.99561 4.63843 7.03411C5.58718 7.24036 6.54931 6.99903 7.28906 6.37615C8.03156 5.75603 8.43394 4.84522 8.39819 3.87859C8.39269 3.70397 8.47358 3.5846 8.63721 3.5241C8.71764 3.49523 8.7917 3.4916 8.86011 3.51067V3.51068ZM13.9653 8.31244L10.8125 11.4653L9.03467 9.68744L7.09033 11.6345L10.8125 15.3566L15.9097 10.2595L13.9653 8.31244ZM8.18066 20.1047C8.23429 20.1026 8.28181 20.1151 8.32031 20.1288C8.39594 20.1563 8.49652 20.2182 8.54053 20.3571C8.66838 20.7536 8.86895 21.1008 9.11792 21.4018L7.45557 24.1706C6.96949 23.3255 6.10571 22.7499 5.11646 22.7499H5.07886L6.30078 20.6391C6.8839 20.6476 7.47306 20.4961 8.0061 20.1611C8.06798 20.1226 8.12704 20.1067 8.18067 20.1047L8.18066 20.1047ZM14.8247 20.1047C14.8783 20.1067 14.9387 20.1212 15.002 20.1611C15.519 20.4856 16.0867 20.6382 16.6536 20.6391L17.8782 22.7499H17.8406C16.8524 22.7499 15.9877 23.3238 15.5015 24.1706L13.8579 21.4313C14.1197 21.124 14.331 20.7668 14.4648 20.3571C14.5102 20.2182 14.6108 20.1563 14.6851 20.1288C14.7222 20.1151 14.7711 20.1026 14.8247 20.1047V20.1047Z" fill="#5C6BC0"/>
</svg>
