<svg width="22" height="22" viewBox="0 0 22 22" fill="none" xmlns="http://www.w3.org/2000/svg">
<path fill-rule="evenodd" clip-rule="evenodd" d="M10.9997 0.200256C8.06661 0.200256 7.69851 0.213081 6.5465 0.265507C5.39673 0.318158 4.61193 0.500185 3.92522 0.767262C3.21489 1.04312 2.61233 1.41212 2.01202 2.01265C1.41127 2.61296 1.04226 3.21551 0.765511 3.92562C0.497759 4.61255 0.315507 5.39759 0.263756 6.5469C0.212231 7.69891 0.19873 8.06724 0.19873 11.0004C0.19873 13.9335 0.211781 14.3005 0.263981 15.4525C0.316857 16.6023 0.498884 17.3871 0.765736 18.0738C1.04181 18.7841 1.41082 19.3867 2.01135 19.987C2.61143 20.5877 3.21399 20.9576 3.92387 21.2335C4.61103 21.5006 5.39606 21.6826 6.5456 21.7352C7.69761 21.7877 8.06549 21.8005 10.9984 21.8005C13.9317 21.8005 14.2987 21.7877 15.4507 21.7352C16.6005 21.6826 17.3862 21.5006 18.0734 21.2335C18.7835 20.9576 19.3851 20.5877 19.9852 19.987C20.586 19.3867 20.955 18.7841 21.2317 18.074C21.4972 17.3871 21.6795 16.602 21.7335 15.4527C21.7852 14.3007 21.7987 13.9335 21.7987 11.0004C21.7987 8.06724 21.7852 7.69914 21.7335 6.54712C21.6795 5.39736 21.4972 4.61255 21.2317 3.92585C20.955 3.21551 20.586 2.61296 19.9852 2.01265C19.3845 1.41189 18.7837 1.04289 18.0727 0.767262C17.3842 0.500185 16.5989 0.318158 15.4492 0.265507C14.2972 0.213081 13.9304 0.200256 10.9964 0.200256H10.9997ZM10.0321 2.14625C10.3197 2.1458 10.6405 2.14625 11.001 2.14625C13.8846 2.14625 14.2264 2.1566 15.3651 2.20835C16.4181 2.2565 16.9896 2.43245 17.3703 2.58028C17.8743 2.77603 18.2337 3.01003 18.6115 3.38803C18.9895 3.76604 19.2235 4.12604 19.4197 4.63005C19.5675 5.0103 19.7437 5.58181 19.7916 6.63482C19.8433 7.77333 19.8546 8.11533 19.8546 10.9976C19.8546 13.8799 19.8433 14.2219 19.7916 15.3604C19.7434 16.4134 19.5675 16.9849 19.4197 17.3652C19.2239 17.8692 18.9895 18.2281 18.6115 18.6058C18.2335 18.9838 17.8746 19.2178 17.3703 19.4136C16.9901 19.5621 16.4181 19.7376 15.3651 19.7858C14.2266 19.8375 13.8846 19.8488 11.001 19.8488C8.11712 19.8488 7.77534 19.8375 6.63683 19.7858C5.58382 19.7372 5.01232 19.5612 4.63139 19.4134C4.12738 19.2176 3.76738 18.9836 3.38937 18.6056C3.01137 18.2276 2.77737 17.8685 2.58117 17.3643C2.43334 16.984 2.25716 16.4125 2.20924 15.3595C2.15749 14.221 2.14714 13.879 2.14714 10.9949C2.14714 8.11083 2.15749 7.77063 2.20924 6.63212C2.25739 5.57911 2.43334 5.0076 2.58117 4.6269C2.77692 4.12289 3.01137 3.76289 3.38937 3.38488C3.76738 3.00688 4.12738 2.77288 4.63139 2.57668C5.01209 2.42817 5.58382 2.25267 6.63683 2.2043C7.63314 2.1593 8.01925 2.1458 10.0321 2.14355V2.14625ZM16.7674 3.93892C16.0519 3.93892 15.4714 4.51875 15.4714 5.23448C15.4714 5.94999 16.0519 6.5305 16.7674 6.5305C17.4829 6.5305 18.0634 5.94999 18.0634 5.23448C18.0634 4.51897 17.4829 3.93847 16.7674 3.93847V3.93892ZM11.002 5.45409C7.93908 5.45409 5.45573 7.93744 5.45573 11.0004C5.45573 14.0634 7.93908 16.5456 11.002 16.5456C14.065 16.5456 16.5474 14.0634 16.5474 11.0004C16.5474 7.93744 14.0648 5.45409 11.0018 5.45409H11.002ZM10.9991 7.39989C12.9872 7.39989 14.5992 9.01159 14.5992 10.9999C14.5992 12.9881 12.9872 14.6 10.9991 14.6C9.01078 14.6 7.39909 12.9881 7.39909 10.9999C7.39909 9.01159 9.01078 7.39989 10.9991 7.39989Z" fill="#2B2F3E"/>
</svg>
