<svg width="32" height="29" viewBox="0 0 32 29" fill="none" xmlns="http://www.w3.org/2000/svg">
<path d="M3.125 0.125002C1.60838 0.125002 0.375 1.35838 0.375 2.875V22.125C0.375 23.6416 1.60838 24.875 3.125 24.875H16.5715C15.8882 24.116 15.5 23.1535 15.5 22.125H8.625V20.75H5.875V22.125H3.125V2.875H14.6514L16.0264 5.625H27.875V13.5715C27.9286 13.6197 27.9906 13.6562 28.0415 13.7085L28.208 13.875H29.25H30.625V5.625C30.625 4.10838 29.3916 2.875 27.875 2.875H17.7236L17.1113 1.64502C16.6438 0.70727 15.7019 0.125 14.6514 0.125L3.125 0.125002ZM11.375 7C9.85622 7 8.625 8.23122 8.625 9.75C8.625 11.2688 9.85622 12.5 11.375 12.5C12.8938 12.5 14.125 11.2688 14.125 9.75C14.125 8.23122 12.8938 7 11.375 7ZM19.625 9.75V12.5H25.125V9.75H19.625ZM11.375 13.875C8.37062 13.875 5.875 15.1246 5.875 16.9231V18H16.875V16.9231C16.875 15.1246 14.3794 13.875 11.375 13.875H11.375ZM25.1035 15.25C24.7463 15.2557 24.4054 15.4002 24.1528 15.6528L23.1807 16.625H21C20.2406 16.6251 19.6251 17.2406 19.625 18V20.1807L18.6528 21.1528C18.1161 21.6898 18.1161 22.5602 18.6528 23.0972L19.625 24.0693V26.25C19.6251 27.0094 20.2406 27.6249 21 27.625H23.1807L24.1528 28.5972C24.6898 29.1339 25.5602 29.1339 26.0972 28.5972L27.0693 27.625H29.25C30.0094 27.6249 30.6249 27.0094 30.625 26.25V24.0693L31.5972 23.0972C32.1339 22.5602 32.1339 21.6898 31.5972 21.1528L30.625 20.1807V18C30.6249 17.2406 30.0094 16.6251 29.25 16.625H27.0693L26.0972 15.6528C25.8341 15.3896 25.4756 15.2443 25.1035 15.25ZM25.125 18.5693L25.5278 18.9722C25.7857 19.23 26.1354 19.3749 26.5 19.375H27.875V20.75C27.8751 21.1147 28.02 21.4643 28.2778 21.7222L28.6807 22.125L28.2778 22.5278C28.02 22.7857 27.8751 23.1354 27.875 23.5V24.875H26.5C26.1354 24.8751 25.7857 25.02 25.5278 25.2778L25.125 25.6807L24.7222 25.2778C24.4643 25.02 24.1147 24.8751 23.75 24.875H22.375V23.5C22.3749 23.1354 22.23 22.7857 21.9722 22.5278L21.5693 22.125L21.9722 21.7222C22.23 21.4643 22.3749 21.1147 22.375 20.75V19.375H23.75C24.1146 19.3749 24.4643 19.23 24.7222 18.9722L25.125 18.5693Z" fill="#5C6BC0"/>
</svg>
