<svg width="153" height="23" viewBox="0 0 153 23" fill="none" xmlns="http://www.w3.org/2000/svg">
<path d="M0.08 9.408C0.08 14.424 3.536 18.288 8.888 18.288C11.936 18.288 14.12 17.016 15.584 15.528L13.952 13.296C12.656 14.568 10.832 15.456 9.008 15.456C5.312 15.456 3.272 12.552 3.272 9.36C3.272 6.216 5.24 3.504 8.984 3.504C10.64 3.504 12.44 4.272 13.64 5.304L15.128 3C13.472 1.392 11.072 0.671999 8.84 0.671999C3.704 0.671999 0.08 4.464 0.08 9.408ZM22.1077 18H25.1797V3.624H30.7717V0.959999H16.5157V3.624H22.1077V18ZM31.6034 9.408C31.6034 14.424 35.0594 18.288 40.4114 18.288C43.4594 18.288 45.6434 17.016 47.1074 15.528L45.4754 13.296C44.1794 14.568 42.3554 15.456 40.5314 15.456C36.8354 15.456 34.7954 12.552 34.7954 9.36C34.7954 6.216 36.7634 3.504 40.5074 3.504C42.1634 3.504 43.9634 4.272 45.1634 5.304L46.6514 3C44.9954 1.392 42.5954 0.671999 40.3634 0.671999C35.2274 0.671999 31.6034 4.464 31.6034 9.408ZM55.2871 12.48H62.4871V9.816H55.2871V12.48ZM71.6705 17.112C72.7025 17.832 73.7825 18.288 75.0785 18.288C77.5505 18.288 78.7265 16.248 79.4465 14.424L84.7025 0.959999H81.4625L78.7265 8.592C78.3425 9.696 78.0305 10.824 78.0305 10.824H77.9825C77.9825 10.824 77.5745 9.696 77.0225 8.568L73.3985 0.959999H69.9905L76.6625 14.136C76.3025 15.072 75.8225 15.624 74.9585 15.624C74.1665 15.624 73.4705 15.12 73.0385 14.784L71.6705 17.112ZM84.854 10.848C84.854 15.192 86.846 18.288 91.094 18.288C94.718 18.288 97.094 15.816 97.094 12.432C97.094 9.048 95.006 6.816 91.862 6.816C90.446 6.816 88.91 7.248 87.83 8.592H87.782C87.902 6.48 89.27 5.352 91.358 4.488L96.014 2.712L95.102 0.24L90.878 1.896C86.414 3.624 84.854 6.24 84.854 10.848ZM87.95 12.456C87.95 10.536 89.27 9.168 91.022 9.168C92.654 9.168 94.022 10.416 94.022 12.48C94.022 14.544 92.654 15.768 90.974 15.768C89.318 15.768 87.95 14.544 87.95 12.456ZM98.9349 11.88C98.9349 15.648 101.935 18.288 105.655 18.288C109.375 18.288 112.375 15.648 112.375 11.88C112.375 8.136 109.375 5.472 105.631 5.472C101.935 5.472 98.9349 8.136 98.9349 11.88ZM102.031 11.88C102.031 9.624 103.663 8.064 105.655 8.064C107.647 8.064 109.303 9.624 109.303 11.88C109.303 14.16 107.647 15.696 105.655 15.696C103.663 15.696 102.031 14.16 102.031 11.88ZM114.89 22.8H117.938V17.616C117.938 16.992 117.866 16.56 117.866 16.56H117.914C118.778 17.664 120.05 18.288 121.442 18.288C124.658 18.288 127.034 15.768 127.034 11.88C127.034 8.088 124.922 5.472 121.61 5.472C119.954 5.472 118.466 6.216 117.674 7.536H117.626C117.626 7.536 117.674 7.128 117.674 6.672V5.76H114.89V22.8ZM117.842 11.952C117.842 9.24 119.33 8.088 120.938 8.088C122.714 8.088 123.962 9.6 123.962 11.928C123.962 14.352 122.57 15.72 120.89 15.72C118.898 15.72 117.842 13.848 117.842 11.952ZM129.632 18H132.68V13.032H134.264L137.48 18H141.008L136.64 11.64V11.592L140.528 5.76H137.144L134.168 10.44H132.68V5.76H129.632V18ZM141.751 14.616C141.751 16.848 143.575 18.288 145.783 18.288C147.439 18.288 148.903 17.376 149.647 16.08H149.695C149.695 16.08 149.623 16.464 149.623 16.968V18H152.455V10.344C152.455 7.248 150.559 5.472 147.367 5.472C145.543 5.472 143.575 6.168 142.567 6.984L143.695 9.168C144.679 8.496 145.903 7.992 147.103 7.992C148.375 7.992 149.407 8.544 149.407 10.152V10.32H148.879C146.167 10.32 141.751 10.944 141.751 14.616ZM144.775 14.352C144.775 12.624 147.367 12.408 148.903 12.408H149.431V12.744C149.431 14.232 148.327 15.96 146.623 15.96C145.399 15.96 144.775 15.168 144.775 14.352Z" fill="white"/>
</svg>
