<svg width="1021" height="139" viewBox="0 0 1021 139" fill="none" xmlns="http://www.w3.org/2000/svg">
<path opacity="0.6" d="M0.148973 68.1563C0.148973 60.0197 1.6746 51.9466 4.72584 43.9371C7.77708 35.9276 12.2268 28.6809 18.075 22.197C23.9232 15.7131 31.0428 10.5641 39.4337 6.75004C47.8247 2.80885 57.3598 0.838254 68.0391 0.838254C80.6255 0.838254 91.6227 3.57166 101.031 9.03848C110.439 14.5053 117.431 21.6249 122.008 30.3972L97.9795 47.179C95.9453 42.475 93.2119 38.7881 89.7793 36.1183C86.3466 33.3213 82.6597 31.4143 78.7185 30.3972C74.7773 29.253 70.9633 28.6809 67.2763 28.6809C59.2668 28.6809 52.6558 30.715 47.4432 34.7833C42.2307 38.8517 38.3531 44.0006 35.8104 50.2303C33.2677 56.4599 31.9963 62.8166 31.9963 69.3005C31.9963 76.4201 33.4584 83.1583 36.3825 89.515C39.3066 95.7446 43.4385 100.766 48.7782 104.581C54.1178 108.395 60.411 110.302 67.6577 110.302C71.4718 110.302 75.3494 109.73 79.2906 108.585C83.2318 107.314 86.8551 105.28 90.1607 102.483C93.5933 99.6858 96.1996 96.0625 97.9795 91.6128L123.534 106.678C120.864 113.416 116.478 119.138 110.375 123.842C104.273 128.418 97.3438 131.978 89.5885 134.521C81.9604 136.936 74.3959 138.144 66.8949 138.144C57.1055 138.144 48.1425 136.174 40.0058 132.232C31.8692 128.164 24.8132 122.824 18.8378 116.213C12.8625 109.475 8.22206 101.974 4.91654 93.7105C1.73816 85.3196 0.148973 76.8015 0.148973 68.1563ZM187.528 138.907C176.086 138.907 166.36 136.491 158.35 131.66C150.468 126.829 144.429 120.472 140.234 112.59C136.038 104.708 133.94 96.1896 133.94 87.0359C133.94 77.755 136.038 69.1734 140.234 61.291C144.429 53.4086 150.531 47.0519 158.541 42.2207C166.551 37.3896 176.213 34.974 187.528 34.974C198.843 34.974 208.505 37.3896 216.515 42.2207C224.524 47.0519 230.627 53.4086 234.822 61.291C239.018 69.1734 241.115 77.755 241.115 87.0359C241.115 96.1896 239.018 104.708 234.822 112.59C230.627 120.472 224.524 126.829 216.515 131.66C208.505 136.491 198.843 138.907 187.528 138.907ZM165.216 87.0359C165.216 94.7911 167.313 101.084 171.509 105.915C175.831 110.747 181.171 113.162 187.528 113.162C193.757 113.162 198.97 110.747 203.165 105.915C207.488 101.084 209.649 94.7911 209.649 87.0359C209.649 79.2806 207.488 72.9875 203.165 68.1563C198.97 63.3252 193.757 60.9096 187.528 60.9096C181.171 60.9096 175.831 63.3252 171.509 68.1563C167.313 72.9875 165.216 79.2806 165.216 87.0359ZM356.557 137H326.045V80.7427C326.045 74.1317 324.774 69.3641 322.231 66.44C319.815 63.3887 316.573 61.8631 312.505 61.8631C308.31 61.8631 304.051 63.5159 299.728 66.8214C295.405 70.1269 292.354 74.3859 290.574 79.5985V137H260.062V36.8811H287.523V53.6629C291.21 47.8147 296.423 43.2378 303.161 39.9323C309.899 36.6268 317.654 34.974 326.426 34.974C332.91 34.974 338.123 36.1818 342.064 38.5974C346.132 40.8858 349.184 43.9371 351.218 47.7511C353.379 51.438 354.778 55.5064 355.413 59.9561C356.176 64.4058 356.557 68.7284 356.557 72.9239V137ZM445.297 131.66C441.101 133.44 436.27 135.093 430.803 136.619C425.464 138.144 420.06 138.907 414.594 138.907C409.508 138.907 404.868 138.081 400.672 136.428C396.477 134.648 393.108 131.787 390.565 127.846C388.022 123.905 386.751 118.693 386.751 112.209V59.9561H373.974V36.8811H386.751V5.03372H417.263V36.8811H437.669V59.9561H417.263V101.72C417.263 105.026 418.09 107.441 419.743 108.967C421.395 110.365 423.493 111.064 426.036 111.064C428.324 111.064 430.676 110.683 433.092 109.92C435.507 109.157 437.605 108.331 439.385 107.441L445.297 131.66ZM454.707 107.06C454.707 100.449 456.55 94.664 460.237 89.7057C463.924 84.7475 469.009 80.8698 475.493 78.0729C481.977 75.1488 489.415 73.6867 497.806 73.6867C501.874 73.6867 505.879 74.0681 509.82 74.8309C513.761 75.4666 517.194 76.4201 520.118 77.6915V73.3053C520.118 61.9903 513.443 56.3328 500.094 56.3328C494.5 56.3328 489.224 57.2863 484.266 59.1933C479.435 61.1003 474.286 63.8337 468.819 67.3935L459.665 47.9418C472.887 39.2966 487.381 34.974 503.145 34.974C518.147 34.974 529.78 38.5974 538.044 45.8441C546.435 52.9637 550.63 63.3252 550.63 76.9286V103.055C550.63 106.106 551.075 108.267 551.965 109.539C552.982 110.81 554.699 111.509 557.114 111.637V137C554.444 137.509 552.029 137.89 549.867 138.144C547.706 138.398 545.799 138.526 544.146 138.526C538.425 138.526 534.039 137.381 530.988 135.093C528.064 132.805 526.22 129.69 525.457 125.749L524.885 121.362C520.436 127.083 515.096 131.47 508.866 134.521C502.637 137.445 496.216 138.907 489.605 138.907C482.994 138.907 477.019 137.509 471.679 134.712C466.467 131.915 462.335 128.164 459.284 123.46C456.232 118.629 454.707 113.162 454.707 107.06ZM515.35 110.874C518.529 108.331 520.118 105.725 520.118 103.055V94.0919C517.448 93.0748 514.524 92.312 511.345 91.8035C508.294 91.1678 505.497 90.8499 502.955 90.8499C497.233 90.8499 492.529 92.1213 488.843 94.664C485.283 97.2067 483.503 100.449 483.503 104.39C483.503 107.822 484.838 110.81 487.508 113.353C490.305 115.768 493.992 116.976 498.568 116.976C501.62 116.976 504.671 116.404 507.722 115.26C510.773 114.116 513.316 112.654 515.35 110.874ZM624.42 138.907C613.232 138.907 603.57 136.491 595.433 131.66C587.424 126.829 581.258 120.472 576.935 112.59C572.74 104.708 570.642 96.126 570.642 86.8452C570.642 77.6915 572.74 69.1734 576.935 61.291C581.258 53.4086 587.424 47.0519 595.433 42.2207C603.443 37.3896 613.105 34.974 624.42 34.974C635.862 34.974 645.525 37.4532 653.407 42.4115C661.417 47.2426 667.392 53.5993 671.333 61.4817L641.584 70.4448C637.642 64.088 631.858 60.9096 624.23 60.9096C618 60.9096 612.724 63.2616 608.401 67.9656C604.079 72.6696 601.917 78.9628 601.917 86.8452C601.917 94.7276 604.079 101.084 608.401 105.915C612.724 110.747 618 113.162 624.23 113.162C628.044 113.162 631.54 112.272 634.718 110.492C637.897 108.585 640.249 106.17 641.774 103.246L671.524 112.399C667.837 120.155 661.925 126.511 653.788 131.47C645.779 136.428 635.99 138.907 624.42 138.907ZM753.967 131.66C749.772 133.44 744.94 135.093 739.474 136.619C734.134 138.144 728.731 138.907 723.264 138.907C718.178 138.907 713.538 138.081 709.343 136.428C705.147 134.648 701.778 131.787 699.235 127.846C696.693 123.905 695.421 118.693 695.421 112.209V59.9561H682.644V36.8811H695.421V5.03372H725.934V36.8811H746.339V59.9561H725.934V101.72C725.934 105.026 726.76 107.441 728.413 108.967C730.066 110.365 732.163 111.064 734.706 111.064C736.994 111.064 739.346 110.683 741.762 109.92C744.178 109.157 746.275 108.331 748.055 107.441L753.967 131.66ZM817.04 100.957V36.8811H847.553V94.2826C847.553 106.869 852.193 113.162 861.474 113.162C865.543 113.162 869.484 112.082 873.298 109.92C877.112 107.632 880.481 103.881 883.405 98.6688V36.8811H913.917V103.055C913.917 106.106 914.362 108.267 915.252 109.539C916.269 110.81 917.986 111.509 920.401 111.637V137C917.477 137.509 914.998 137.89 912.964 138.144C910.93 138.398 909.086 138.526 907.434 138.526C896.5 138.526 890.27 134.267 888.745 125.749L888.173 119.646C883.596 126.257 877.875 131.152 871.009 134.33C864.271 137.381 856.707 138.907 848.316 138.907C838.145 138.907 830.39 135.665 825.05 129.181C819.71 122.697 817.04 113.289 817.04 100.957ZM979.701 138.907C971.056 138.907 962.665 137.509 954.528 134.712C946.519 131.787 939.717 127.656 934.123 122.316L944.612 103.055C956.944 112.082 968.322 116.595 978.747 116.595C982.689 116.595 985.74 115.959 987.901 114.688C990.062 113.416 991.143 111.446 991.143 108.776C991.143 105.979 989.681 104.008 986.757 102.864C983.833 101.593 979.51 100.131 973.789 98.4781C966.161 95.9353 959.804 93.4562 954.719 91.0406C949.633 88.6251 945.819 85.701 943.277 82.2683C940.734 78.8357 939.463 74.2588 939.463 68.5377C939.463 58.494 943.213 50.421 950.714 44.3185C958.215 38.0889 968.386 34.974 981.226 34.974C988.092 34.974 994.766 36.0547 1001.25 38.216C1007.86 40.3773 1014.03 44.0006 1019.75 49.086L1007.92 68.1563C1002.2 64.2151 997.118 61.3546 992.669 59.5747C988.219 57.7948 983.896 56.9049 979.701 56.9049C976.395 56.9049 973.598 57.5405 971.31 58.8119C969.022 59.9561 967.877 61.9903 967.877 64.9144C967.877 67.7113 969.149 69.8091 971.691 71.2076C974.234 72.4789 978.175 73.8774 983.515 75.403C991.652 77.8186 998.453 80.2977 1003.92 82.8404C1009.51 85.256 1013.65 88.3072 1016.32 91.9942C1019.11 95.5539 1020.51 100.322 1020.51 106.297C1020.51 116.468 1016.82 124.477 1009.45 130.325C1002.08 136.046 992.16 138.907 979.701 138.907Z" fill="url(#paint0_linear)"/>
<defs>
<linearGradient id="paint0_linear" x1="-27.54" y1="-135" x2="2358.2" y2="320.04" gradientUnits="userSpaceOnUse">
<stop offset="0.108921" stop-color="#F9F9FE"/>
<stop offset="0.470258" stop-color="#F9F9FE"/>
</linearGradient>
</defs>
</svg>
