<svg width="22" height="22" fill="none" xmlns="http://www.w3.org/2000/svg"><path fill-rule="evenodd" clip-rule="evenodd" d="M11 .2C8.067.2 7.699.213 6.546.266 5.396.318 4.612.5 3.926.767a5.289 5.289 0 00-1.914 1.246c-.6.6-.97 1.203-1.246 1.913-.268.687-.45 1.472-.502 2.62C.212 7.7.199 8.068.199 11c0 2.934.013 3.3.065 4.453.053 1.15.235 1.934.502 2.62a5.29 5.29 0 001.245 1.914c.6.6 1.203.97 1.913 1.247.687.267 1.472.449 2.622.501 1.152.053 1.52.066 4.452.066 2.934 0 3.3-.013 4.453-.066 1.15-.052 1.935-.234 2.622-.502a5.285 5.285 0 001.912-1.246 5.3 5.3 0 001.247-1.913c.265-.687.448-1.472.502-2.621.051-1.152.065-1.52.065-4.453 0-2.933-.014-3.3-.066-4.453-.053-1.15-.236-1.934-.501-2.621a5.3 5.3 0 00-1.247-1.913A5.274 5.274 0 0018.073.767C17.384.5 16.599.318 15.449.266 14.297.213 13.93.2 10.996.2H11zm-.968 1.946h.969c2.884 0 3.225.01 4.364.062 1.053.048 1.625.224 2.005.372.504.196.864.43 1.241.808.378.378.613.738.809 1.242.147.38.324.952.372 2.005.051 1.138.063 1.48.063 4.363 0 2.882-.012 3.224-.063 4.362-.049 1.053-.225 1.625-.372 2.005a3.34 3.34 0 01-.809 1.24 3.34 3.34 0 01-1.24.809c-.38.148-.953.324-2.006.372-1.138.051-1.48.063-4.364.063s-3.226-.012-4.364-.063c-1.053-.049-1.625-.225-2.006-.373a3.346 3.346 0 01-1.242-.807 3.347 3.347 0 01-.808-1.242c-.148-.38-.324-.951-.372-2.005-.052-1.138-.062-1.48-.062-4.364s.01-3.224.062-4.363c.048-1.053.224-1.624.372-2.005.196-.504.43-.864.808-1.242a3.352 3.352 0 011.242-.808c.381-.149.953-.324 2.006-.373.996-.045 1.382-.058 3.395-.06v.002zm6.735 1.793a1.296 1.296 0 100 2.592 1.296 1.296 0 000-2.593zm-5.765 1.515a5.547 5.547 0 100 11.093 5.547 5.547 0 000-11.093zM10.999 7.4a3.6 3.6 0 110 7.2 3.6 3.6 0 010-7.2z" fill="#2B2F3E"/></svg>