<svg width="32" height="29" fill="none" xmlns="http://www.w3.org/2000/svg"><path d="M3.125.125a2.753 2.753 0 00-2.75 2.75v19.25a2.753 2.753 0 002.75 2.75h13.447a4.09 4.09 0 01-1.072-2.75H8.625V20.75h-2.75v1.375h-2.75V2.875h11.526l1.375 2.75h11.849v7.947c.054.048.116.084.166.137l.167.166h2.417v-8.25a2.753 2.753 0 00-2.75-2.75H17.724l-.613-1.23a2.731 2.731 0 00-2.46-1.52H3.125zM11.375 7a2.75 2.75 0 100 5.5 2.75 2.75 0 000-5.5zm8.25 2.75v2.75h5.5V9.75h-5.5zm-8.25 4.125c-3.004 0-5.5 1.25-5.5 3.048V18h11v-1.077c0-1.798-2.496-3.048-5.5-3.048zm13.729 1.375c-.358.006-.699.15-.951.403l-.972.972H21c-.76 0-1.375.616-1.375 1.375v2.18l-.972.973a1.375 1.375 0 000 1.944l.972.972v2.181c0 .76.616 1.375 1.375 1.375h2.18l.973.972a1.375 1.375 0 001.944 0l.972-.972h2.181c.76 0 1.375-.616 1.375-1.375v-2.18l.972-.973a1.375 1.375 0 000-1.944l-.972-.972V18c0-.76-.616-1.375-1.375-1.375h-2.18l-.973-.972a1.375 1.375 0 00-.994-.403zm.021 3.32l.403.402c.258.258.607.403.972.403h1.375v1.375c0 .365.145.714.403.972l.403.403-.403.403a1.376 1.376 0 00-.403.972v1.375H26.5c-.365 0-.714.145-.972.403l-.403.403-.403-.403a1.376 1.376 0 00-.972-.403h-1.375V23.5c0-.365-.145-.714-.403-.972l-.403-.403.403-.403c.258-.258.403-.607.403-.972v-1.375h1.375c.365 0 .714-.145.972-.403l.403-.403z" fill="#5C6BC0"/></svg>