<svg width="28" height="31" fill="none" xmlns="http://www.w3.org/2000/svg"><path d="M3.25.75A2.758 2.758 0 00.5 3.5v22a2.758 2.758 0 002.75 2.75h11a10.896 10.896 0 01-1.058-2.75H3.25v-22h9.625v6.875h6.875v3.41l.948-.426a2.635 2.635 0 011.802-.137V9L14.25.75h-11zM6 14.5v2.75h7.246a2.757 2.757 0 011.264-1.141L17 15.008V14.5H6zm15.813 1.375l-6.188 2.75v4.125c0 5.383 4.427 7.897 6.188 8.25 1.76-.353 6.187-2.867 6.187-8.25v-4.125l-6.188-2.75zm0 3.01l3.437 1.529v2.336c0 3.202-2.29 4.819-3.438 5.355-1.146-.536-3.437-2.153-3.437-5.355v-2.336l3.438-1.529zM6 20v2.75h6.875V20H6z" fill="#5C6BC0"/></svg>