<svg width="153" height="23" fill="none" xmlns="http://www.w3.org/2000/svg"><path d="M.08 9.408c0 5.016 3.456 8.88 8.808 8.88 3.048 0 5.232-1.272 6.696-2.76l-1.632-2.232c-1.296 1.272-3.12 2.16-4.944 2.16-3.696 0-5.736-2.904-5.736-6.096 0-3.144 1.968-5.856 5.712-5.856 1.656 0 3.456.768 4.656 1.8L15.128 3C13.472 1.392 11.072.672 8.84.672 3.704.672.08 4.464.08 9.408zM22.108 18h3.072V3.624h5.592V.96H16.516v2.664h5.592V18zm9.495-8.592c0 5.016 3.456 8.88 8.808 8.88 3.048 0 5.232-1.272 6.696-2.76l-1.632-2.232c-1.296 1.272-3.12 2.16-4.944 2.16-3.696 0-5.736-2.904-5.736-6.096 0-3.144 1.968-5.856 5.712-5.856 1.656 0 3.456.768 4.656 1.8L46.651 3C44.995 1.392 42.595.672 40.363.672c-5.136 0-8.76 3.792-8.76 8.736zm23.684 3.072h7.2V9.816h-7.2v2.664zm16.384 4.632c1.031.72 2.111 1.176 3.407 1.176 2.472 0 3.648-2.04 4.368-3.864L84.704.96h-3.24l-2.736 7.632a40.785 40.785 0 00-.697 2.232h-.047s-.409-1.128-.96-2.256L73.398.96H69.99l6.672 13.176c-.36.936-.84 1.488-1.704 1.488-.791 0-1.487-.504-1.92-.84l-1.367 2.328zm13.183-6.264c0 4.344 1.992 7.44 6.24 7.44 3.624 0 6-2.472 6-5.856s-2.088-5.616-5.232-5.616c-1.416 0-2.952.432-4.032 1.776h-.048c.12-2.112 1.488-3.24 3.576-4.104l4.656-1.776L95.102.24l-4.224 1.656c-4.464 1.728-6.024 4.344-6.024 8.952zm3.096 1.608c0-1.92 1.32-3.288 3.072-3.288 1.632 0 3 1.248 3 3.312s-1.368 3.288-3.048 3.288c-1.656 0-3.024-1.224-3.024-3.312zm10.985-.576c0 3.768 3 6.408 6.72 6.408 3.72 0 6.72-2.64 6.72-6.408 0-3.744-3-6.408-6.744-6.408-3.696 0-6.696 2.664-6.696 6.408zm3.096 0c0-2.256 1.632-3.816 3.624-3.816 1.992 0 3.648 1.56 3.648 3.816 0 2.28-1.656 3.816-3.648 3.816-1.992 0-3.624-1.536-3.624-3.816zM114.89 22.8h3.048v-5.184c0-.624-.072-1.056-.072-1.056h.048a4.433 4.433 0 003.528 1.728c3.216 0 5.592-2.52 5.592-6.408 0-3.792-2.112-6.408-5.424-6.408-1.656 0-3.144.744-3.936 2.064h-.048s.048-.408.048-.864V5.76h-2.784V22.8zm2.952-10.848c0-2.712 1.488-3.864 3.096-3.864 1.776 0 3.024 1.512 3.024 3.84 0 2.424-1.392 3.792-3.072 3.792-1.992 0-3.048-1.872-3.048-3.768zM129.632 18h3.048v-4.968h1.584L137.48 18h3.528l-4.368-6.36v-.048l3.888-5.832h-3.384l-2.976 4.68h-1.488V5.76h-3.048V18zm12.119-3.384c0 2.232 1.824 3.672 4.032 3.672 1.656 0 3.12-.912 3.864-2.208h.048s-.072.384-.072.888V18h2.832v-7.656c0-3.096-1.896-4.872-5.088-4.872-1.824 0-3.792.696-4.8 1.512l1.128 2.184c.984-.672 2.208-1.176 3.408-1.176 1.272 0 2.304.552 2.304 2.16v.168h-.528c-2.712 0-7.128.624-7.128 4.296zm3.024-.264c0-1.728 2.592-1.944 4.128-1.944h.528v.336c0 1.488-1.104 3.216-2.808 3.216-1.224 0-1.848-.792-1.848-1.608z" fill="#fff"/></svg>