<svg width="1021" height="139" fill="none" xmlns="http://www.w3.org/2000/svg"><path opacity=".6" d="M.149 68.156c0-8.136 1.526-16.21 4.577-24.219 3.051-8.01 7.5-15.256 13.349-21.74 5.848-6.484 12.968-11.633 21.359-15.447C47.824 2.809 57.36.838 68.039.838c12.587 0 23.584 2.734 32.992 8.2 9.408 5.467 16.4 12.587 20.977 21.36L97.98 47.178c-2.035-4.704-4.768-8.39-8.2-11.06-3.433-2.798-7.12-4.705-11.061-5.722-3.942-1.144-7.756-1.716-11.443-1.716-8.01 0-14.62 2.034-19.833 6.102-5.212 4.069-9.09 9.218-11.633 15.447-2.542 6.23-3.814 12.587-3.814 19.07 0 7.12 1.462 13.858 4.387 20.215 2.924 6.23 7.055 11.251 12.395 15.066 5.34 3.814 11.633 5.721 18.88 5.721 3.814 0 7.691-.572 11.633-1.717 3.94-1.271 7.564-3.305 10.87-6.102 3.432-2.797 6.039-6.42 7.819-10.87l25.554 15.065c-2.67 6.738-7.056 12.46-13.159 17.164-6.102 4.576-13.031 8.136-20.787 10.679-7.628 2.415-15.192 3.623-22.693 3.623-9.79 0-18.752-1.97-26.89-5.912-8.136-4.068-15.192-9.408-21.167-16.019-5.976-6.738-10.616-14.239-13.921-22.502C1.738 85.32.149 76.8.149 68.155zm187.379 70.751c-11.442 0-21.168-2.416-29.178-7.247-7.882-4.831-13.921-11.188-18.116-19.07-4.196-7.882-6.294-16.4-6.294-25.554 0-9.281 2.098-17.863 6.294-25.745 4.195-7.882 10.297-14.24 18.307-19.07 8.01-4.831 17.672-7.247 28.987-7.247 11.315 0 20.977 2.416 28.987 7.247 8.009 4.83 14.112 11.188 18.307 19.07 4.196 7.882 6.293 16.464 6.293 25.745 0 9.154-2.097 17.672-6.293 25.554-4.195 7.882-10.298 14.239-18.307 19.07-8.01 4.831-17.672 7.247-28.987 7.247zm-22.312-51.871c0 7.755 2.097 14.048 6.293 18.879 4.322 4.832 9.662 7.247 16.019 7.247 6.229 0 11.442-2.415 15.637-7.247 4.323-4.831 6.484-11.124 6.484-18.88 0-7.754-2.161-14.047-6.484-18.879-4.195-4.83-9.408-7.246-15.637-7.246-6.357 0-11.697 2.415-16.019 7.246-4.196 4.831-6.293 11.125-6.293 18.88zM356.557 137h-30.512V80.743c0-6.611-1.271-11.379-3.814-14.303-2.416-3.051-5.658-4.577-9.726-4.577-4.195 0-8.454 1.653-12.777 4.958-4.323 3.306-7.374 7.565-9.154 12.778V137h-30.512V36.881h27.461v16.782c3.687-5.848 8.9-10.425 15.638-13.73 6.738-3.306 14.493-4.959 23.265-4.959 6.484 0 11.697 1.208 15.638 3.623 4.068 2.289 7.12 5.34 9.154 9.154 2.161 3.687 3.56 7.755 4.195 12.205.763 4.45 1.144 8.772 1.144 12.968V137zm88.74-5.34c-4.196 1.78-9.027 3.433-14.494 4.959a58.75 58.75 0 01-16.209 2.288c-5.086 0-9.726-.826-13.922-2.479-4.195-1.78-7.564-4.641-10.107-8.582-2.543-3.941-3.814-9.153-3.814-15.637V59.956h-12.777V36.881h12.777V5.034h30.512V36.88h20.406v23.075h-20.406v41.764c0 3.306.827 5.721 2.48 7.247 1.652 1.398 3.75 2.097 6.293 2.097 2.288 0 4.64-.381 7.056-1.144 2.415-.763 4.513-1.589 6.293-2.479l5.912 24.219zm9.41-24.6c0-6.611 1.843-12.396 5.53-17.354 3.687-4.959 8.772-8.836 15.256-11.633 6.484-2.924 13.922-4.386 22.313-4.386 4.068 0 8.073.381 12.014 1.144 3.941.636 7.374 1.59 10.298 2.86v-4.386c0-11.315-6.675-16.972-20.024-16.972-5.594 0-10.87.953-15.828 2.86-4.831 1.907-9.98 4.64-15.447 8.2l-9.154-19.451c13.222-8.645 27.716-12.968 43.48-12.968 15.002 0 26.635 3.623 34.899 10.87 8.391 7.12 12.586 17.481 12.586 31.085v26.126c0 3.051.445 5.212 1.335 6.484 1.017 1.271 2.734 1.97 5.149 2.098V137c-2.67.509-5.085.89-7.247 1.144-2.161.254-4.068.382-5.721.382-5.721 0-10.107-1.145-13.158-3.433-2.924-2.288-4.768-5.403-5.531-9.344l-.572-4.387c-4.449 5.721-9.789 10.108-16.019 13.159-6.229 2.924-12.65 4.386-19.261 4.386-6.611 0-12.586-1.398-17.926-4.195-5.212-2.797-9.344-6.548-12.395-11.252-3.052-4.831-4.577-10.298-4.577-16.4zm60.643 3.814c3.179-2.543 4.768-5.149 4.768-7.819v-8.963c-2.67-1.017-5.594-1.78-8.773-2.288-3.051-.636-5.848-.954-8.39-.954-5.722 0-10.426 1.271-14.112 3.814-3.56 2.543-5.34 5.785-5.34 9.726 0 3.432 1.335 6.42 4.005 8.963 2.797 2.415 6.484 3.623 11.06 3.623 3.052 0 6.103-.572 9.154-1.716 3.051-1.144 5.594-2.606 7.628-4.386zm109.07 28.033c-11.188 0-20.85-2.416-28.987-7.247-8.009-4.831-14.175-11.188-18.498-19.07-4.195-7.882-6.293-16.464-6.293-25.745 0-9.153 2.098-17.672 6.293-25.554 4.323-7.882 10.489-14.24 18.498-19.07 8.01-4.831 17.672-7.247 28.987-7.247 11.442 0 21.105 2.48 28.987 7.438 8.01 4.83 13.985 11.187 17.926 19.07l-29.749 8.963c-3.942-6.357-9.726-9.535-17.354-9.535-6.23 0-11.506 2.352-15.829 7.056-4.322 4.704-6.484 10.997-6.484 18.88 0 7.882 2.162 14.238 6.484 19.069 4.323 4.832 9.599 7.247 15.829 7.247 3.814 0 7.31-.89 10.488-2.67 3.179-1.907 5.531-4.322 7.056-7.246l29.75 9.153c-3.687 7.756-9.599 14.112-17.736 19.071-8.009 4.958-17.798 7.437-29.368 7.437zm129.547-7.247c-4.195 1.78-9.027 3.433-14.493 4.959a58.758 58.758 0 01-16.21 2.288c-5.086 0-9.726-.826-13.921-2.479-4.196-1.78-7.565-4.641-10.108-8.582-2.542-3.941-3.814-9.153-3.814-15.637V59.956h-12.777V36.881h12.777V5.034h30.513V36.88h20.405v23.075h-20.405v41.764c0 3.306.826 5.721 2.479 7.247 1.653 1.398 3.75 2.097 6.293 2.097 2.288 0 4.64-.381 7.056-1.144 2.416-.763 4.513-1.589 6.293-2.479l5.912 24.219zm63.073-30.703V36.881h30.513v57.402c0 12.586 4.64 18.879 13.921 18.879 4.069 0 8.01-1.08 11.824-3.242 3.814-2.288 7.183-6.039 10.107-11.251V36.88h30.512v66.174c0 3.051.445 5.212 1.335 6.484 1.017 1.271 2.734 1.97 5.149 2.098V137c-2.924.509-5.403.89-7.437 1.144-2.034.254-3.878.382-5.53.382-10.934 0-17.164-4.259-18.689-12.777l-.572-6.103c-4.577 6.611-10.298 11.506-17.164 14.684-6.738 3.051-14.302 4.577-22.693 4.577-10.171 0-17.926-3.242-23.266-9.726-5.34-6.484-8.01-15.892-8.01-28.224zm162.661 37.95a76.908 76.908 0 01-25.173-4.195c-8.009-2.925-14.811-7.056-20.405-12.396l10.489-19.261c12.332 9.027 23.71 13.54 34.135 13.54 3.942 0 6.993-.636 9.154-1.907 2.161-1.272 3.242-3.242 3.242-5.912 0-2.797-1.462-4.768-4.386-5.912-2.924-1.271-7.247-2.733-12.968-4.386-7.628-2.543-13.985-5.022-19.07-7.437-5.086-2.416-8.9-5.34-11.442-8.773-2.543-3.432-3.814-8.01-3.814-13.73 0-10.044 3.75-18.117 11.251-24.22 7.501-6.23 17.672-9.344 30.512-9.344a62.91 62.91 0 0120.024 3.242c6.61 2.161 12.78 5.785 18.5 10.87l-11.83 19.07c-5.72-3.94-10.802-6.801-15.251-8.581-4.45-1.78-8.773-2.67-12.968-2.67-3.306 0-6.103.636-8.391 1.907-2.288 1.144-3.433 3.178-3.433 6.102 0 2.797 1.272 4.895 3.814 6.294 2.543 1.27 6.484 2.67 11.824 4.195 8.137 2.416 14.938 4.895 20.405 7.437 5.59 2.416 9.73 5.467 12.4 9.154 2.79 3.56 4.19 8.328 4.19 14.303 0 10.171-3.69 18.18-11.06 24.028-7.37 5.721-17.29 8.582-29.749 8.582z" fill="url(#paint0_linear)"/><defs><linearGradient id="paint0_linear" x1="-27.54" y1="-135" x2="2358.2" y2="320.04" gradientUnits="userSpaceOnUse"><stop offset=".109" stop-color="#F9F9FE"/><stop offset=".47" stop-color="#F9F9FE"/></linearGradient></defs></svg>